<?xml version="1.0" encoding="utf-8"?>
<!-- Generator: Adobe Illustrator 21.0.0, SVG Export Plug-In . SVG Version: 6.00 Build 0)  -->
<svg version="1.1" id="Layer_1" xmlns="http://www.w3.org/2000/svg" xmlns:xlink="http://www.w3.org/1999/xlink" x="0px" y="0px"
	 viewBox="0 0 500 500" style="enable-background:new 0 0 500 500;" xml:space="preserve">
<style type="text/css">
	.st0{fill:#BBE2F2;}
	.st1{fill:#20232A;}
	.st2{fill:#009CF8;}
	.st3{fill:#06C4F9;}
	.st4{fill:#000B29;}
	.st5{fill:#F97853;}
	.st6{fill:#EA5143;}
	.st7{fill:#FFA681;}
	.st8{fill:#FFFFFF;}
	.st9{fill:#E3E3E3;}
	.st10{fill:#1C31B5;}
</style>
<path class="st0" d="M217.9,148.4C201.6,89,127.7,69.8,85.4,114.3c-0.6,0.6-1.3,1.3-1.8,2c-60.7,66-32,228.5,94.6,269.7
	s258.3-34.1,265.7-101.3c7.4-67.2-51.1-88.4-141.7-69.5C251,225.7,228.1,185.5,217.9,148.4z"/>
<path class="st0" d="M323.2,158.6c-17,2.7-21.6,17.7-8.6,28.4c4.3,3.6,10.5,6.4,19.3,7.9c33.6,5.6,51.3-9.2,37.9-28.5
	C363.6,154.6,340,155.9,323.2,158.6z"/>
<path class="st0" d="M53.1,278.7c-10.5-13.5-26-10.5-29,6.1c-1,5.5-0.6,12.3,2.3,20.8c11.1,32.1,32.7,40.6,43.1,19.6
	C75.9,312.1,63.6,292.2,53.1,278.7z"/>
<path class="st0" d="M455.9,292.4c-1.6,8.2,5.1,13.9,12.8,10.8c2.5-1,5-3,7.3-6.6c8.6-13.4,4.3-25-7.8-23.8
	C460.8,273.6,457.3,284.3,455.9,292.4z"/>
<path class="st0" d="M413,206.2c8.2,1.7,14.1-4.9,11-12.7c-1-2.5-2.9-5.1-6.4-7.4c-13.3-8.9-24.9-4.7-23.9,7.3
	C394.3,200.9,404.9,204.5,413,206.2z"/>
<path class="st0" d="M215.1,118.8c6.4,5.2,14.8,2.1,15.6-6.2c0.3-2.7-0.3-5.9-2.3-9.5c-7.8-13.9-19.9-15.6-24.6-4.5
	C200.9,105.4,208.7,113.6,215.1,118.8z"/>
<path class="st1" d="M476,333.3c12.9-13,22.8-27.7,13-30c-9.8-2.3-26.3,23.3-29.2,46.6l-2.8,7.7c2.4-17-3.5-37.5-12-38.4
	s-3.4,12.6,3.4,24c5.1,8.7,6.5,15.6,6.8,19.2l-13.5,36.3c3.7-26.8-5.5-59.4-19-60.7c-13.4-1.4-5.2,19.9,5.3,38.1
	c8.1,13.7,10.2,24.5,10.8,30.3l-2.7,7.2c1.2,0.6,2.4,1.4,3.6,2l16.1-43.2c3.1-2.3,7.9-5.1,14.6-7.4c12.6-4.3,25.2-11,18.2-15.9
	c-6-4.3-20.1,3.9-29.9,15.5l5.6-15C466.9,345.1,470.4,338.9,476,333.3z"/>
<path class="st1" d="M68.5,163.7c1.7-15.7,0.4-30.8-7.4-27.2c-7.9,3.8-5,29.8,5.6,47l2.2,6.7c-7.6-12.7-22.5-23.4-28.7-19.4
	c-6.1,4,4.5,10.2,15.2,14.3c8.1,3.1,12.7,7,14.9,9.2L80.7,226c-12.1-19.9-35.8-36.8-45.5-30.5s7.1,16.3,24.1,22.7
	c12.8,4.9,20.1,11,23.5,14.5l2.1,6.3c1.2-0.2,2.3-0.4,3.5-0.6l-12.5-37.8c0.8-3.3,2.5-7.7,5.8-12.8c6.2-9.6,11-21,3.7-20.6
	c-6.3,0.4-11.4,13.5-11.7,26.5l-4.2-12.9C68.7,176.6,67.8,170.6,68.5,163.7z"/>
<path class="st2" d="M388.8,376.5c0.2,0.8,0.3,1.9,0.5,2.9c2.3,10.8,8.1,28.5,20.9,32c0,0-7-36.5,17.9-46
	c25-9.5,22.2-18.6,20.8-34.7c-1.5-16.1-6.9-19.2,10.4-34.3c17.3-15.1,13.9-37.5,13.9-37.5s-16.4,25.7-33.9,26.2
	c-17.5,0.6-20.6,15.5-19.8,26.6c0.7,11.1-14.2,12.4-22.1,18.8c-8.1,6.4-9.5,40.3-9.5,40.3S388.1,373.1,388.8,376.5z"/>
<path class="st3" d="M388.8,376.5c0.2,0.8,0.3,1.9,0.5,2.9c1.8-5.5,4.3-10,6.7-13.5c5.6-8.3,13.5-15.1,20.6-17.8
	c11.3-4.3,16.8-15.3,17.8-35.9c0.6-12,13.1-19,13.2-19.1c0.3-0.2,0.5-0.6,0.3-1c-0.2-0.4-0.6-0.5-1-0.3c-0.5,0.3-13.3,7.6-14.1,20.3
	c-1,19.9-6.2,30.5-16.9,34.6c-7.4,2.8-15.4,9.6-21.3,18.4C392.6,368.1,390.4,371.9,388.8,376.5z"/>
<path class="st2" d="M112.6,411.2h17.5c-9.4-1.6-32.9-11.6-35-31.9c-2.6-25.6-11.7-25.3-27.2-28s-19.6,1.7-29.4-18.1
	C28.9,313.3,7,310.9,7,310.9s19.8,21.6,16,38.1C19.3,365.4,32.4,372,43,374c10.5,2.1,8,16.3,12.1,25.3c1.8,4.2,9.3,8.5,16.9,11.8
	h40.7V411.2z"/>
<path class="st3" d="M74.6,386c0.7,7.7,5.1,16.8,11.7,24.4c0.2,0.3,0.5,0.5,0.7,0.8h2.1c-0.5-0.6-1.2-1.2-1.6-1.8
	c-6.3-7.2-10.7-16.4-11.4-23.6c-1.2-11.5-10.1-19.5-29-25.6c-11-3.6-14.5-17-14.5-17.1c-0.1-0.4-0.5-0.6-0.8-0.5
	c-0.4,0.1-0.6,0.5-0.5,0.8c0.1,0.6,3.7,14.3,15.4,18.1C64.9,367.6,73.5,375.1,74.6,386z"/>
<path class="st2" d="M122.1,363.7c-0.4,1.3-0.8,2.6-1.3,4c-5,15.1-15.2,40.5-34.1,43.5c0,0,15-52-19.2-69.4
	c-34.2-17.4-28.8-29.9-24.3-52.6c4.5-22.8,12.9-26.3-9.5-50.4c-22.3-24.2-14.2-55.8-14.2-55.8s19.4,39.1,44.3,42.7s27,25.3,24.2,41
	s18.2,19.8,28.7,30.2c10.5,10.4,7.4,58.9,7.4,58.9S123.4,358.9,122.1,363.7z"/>
<path class="st3" d="M122.1,363.7c-0.4,1.3-0.8,2.6-1.3,4c-1.7-8.1-4.6-14.9-7.4-20.2c-6.7-12.7-16.9-23.6-26.6-28.5
	c-15.4-7.8-21.6-24.4-19.9-53.9c0.9-17.1-15.8-29.2-15.9-29.3c-0.5-0.3-0.6-1-0.3-1.5c0.3-0.5,1-0.6,1.5-0.3
	c0.7,0.5,17.9,12.8,16.9,31.1c-1.6,28.5,4.2,44.6,18.8,51.9c10.3,5.1,20.6,16.1,27.6,29.5C117.8,351.1,120.3,356.9,122.1,363.7z"/>
<path class="st1" d="M135.6,399c0.1,4,0.1,8.1,0.2,12.3H174c0.1-4.5,0.1-8.9,0.2-13c0.1-11.1,0.1-20.2,0.1-25.9c0-4,0-6.3,0-6.3
	l-38.9-0.4c0,0,0,3.4,0,8.8C135.4,380.5,135.4,389.3,135.6,399z"/>
<path class="st4" d="M135.4,374.4c0,6.1,0.1,14.9,0.2,24.5c12,0.9,25.1,0.9,38.5-0.8c0.1-11.1,0.1-20.2,0.1-25.9L135.4,374.4z"/>
<path class="st1" d="M87.6,390.3c0,6.2,0.1,13.3,0.2,21H126c0.1-4.5,0.2-8.9,0.2-13.1c0.1-9.1,0.2-17.3,0.2-23.2c0-5.8,0-9.3,0-9.3
	L87.5,366c0,0,0,4.1,0,11.1C87.5,380.7,87.5,385.1,87.6,390.3z"/>
<path class="st4" d="M87.5,377c0,3.7,0,8.1,0,13.2c7.8,2.3,21.6,5.9,38.6,7.9c0.1-9.1,0.2-17.3,0.2-23.2L87.5,377z"/>
<path class="st1" d="M151.4,161c0,0,6.1-5.9,6.1-11.7c0-5.9-4-4.1-6.1-9.5c-2.1-5.5-8.4-8.7-12-8.1c-3.5,0.6-10.8-12.9-20.7-10.5
	c-10,2.4-9,15.1-13.3,17s-3,9.4-0.8,11.1c2.2,1.7,3.3,8.6,4.5,8.5C110.3,157.6,151.4,161,151.4,161z"/>
<path class="st5" d="M110.1,160.8c0,0-3.9-5.1-6.7-0.8c-2.8,4.3,1.2,16.8,8.2,13.7L110.1,160.8z"/>
<path class="st6" d="M110.1,169.8c-0.2,0-0.5-0.2-0.5-0.4c-1-3.9-5.1-5.5-5.1-5.5c-0.3-0.1-0.4-0.4-0.3-0.7c0.1-0.3,0.4-0.4,0.7-0.3
	c0.2,0.1,4.6,1.8,5.9,6.3c0.1,0.3-0.1,0.6-0.4,0.7C110.2,169.8,110.1,169.8,110.1,169.8z"/>
<path class="st6" d="M106,167.8c-0.1,0-0.2,0-0.3-0.1c-0.3-0.2-0.3-0.5-0.2-0.8c0,0,0.7-1.2,2.2-1.8c0.3-0.1,0.6,0,0.7,0.3
	c0.1,0.3,0,0.6-0.3,0.7c-1.2,0.5-1.7,1.4-1.7,1.4C106.5,167.7,106.2,167.8,106,167.8z"/>
<path class="st5" d="M149.9,160.8c0,0,3.9-5.1,6.7-0.8c2.8,4.3-1.2,16.8-8.2,13.7L149.9,160.8z"/>
<path class="st6" d="M149.9,169.8c0.2,0,0.5-0.2,0.5-0.4c1-3.9,5.1-5.5,5.1-5.5c0.3-0.1,0.4-0.4,0.3-0.7c-0.1-0.3-0.4-0.4-0.7-0.3
	c-0.2,0.1-4.6,1.8-5.9,6.3c-0.1,0.3,0.1,0.6,0.4,0.7C149.8,169.8,149.9,169.8,149.9,169.8z"/>
<path class="st6" d="M154,167.8c0.1,0,0.2,0,0.3-0.1c0.3-0.2,0.3-0.5,0.2-0.8c0,0-0.7-1.2-2.2-1.8c-0.3-0.1-0.6,0-0.7,0.3
	c-0.1,0.3,0,0.6,0.3,0.7c1.2,0.5,1.7,1.4,1.7,1.4C153.5,167.7,153.8,167.8,154,167.8z"/>
<path class="st7" d="M139.5,184.3v12.5c0,0-3.7,6.4-8.7,6.8c-5,0.4-9.5-5.5-9.5-5.5v-12.9L139.5,184.3z"/>
<path class="st5" d="M139.5,184.3v5.6c-3.4,3.8-9.3,4.7-18.2,3.4v-8.1L139.5,184.3z"/>
<path class="st7" d="M152.7,152.3c-0.2,4.8-0.7,10.9-1.6,15.7c-0.2,1.3-0.5,2.3-0.7,3.4c-2.6,9.2-9.2,25-27.6,18.4
	c-8.1-2.9-11.8-12-13.5-21.2c-1.2-6.3-1.3-12.6-1.3-17.1c0.1-4.6,2.6-8.8,6.6-11.1c10.8-6.2,22.3-3.9,29.9-0.9
	C149.6,141.6,152.9,146.8,152.7,152.3z"/>
<path class="st1" d="M109.1,168.7c0,0,1.8,10.6,3.5,14.5c1.7,3.9,6.3,4.6,8,7.9c2.5,4.7,6.2,8.4,12.4,6.1c5.1-1.9,4.9-4.5,7.8-6.5
	c4.9-3.5,7.3-7.3,7.6-10.5c0.2-3.1,2.6-12.1,2.6-12.1l-2.6-0.2c0,0-1.5,3.1-3.8,6.6c-2.2-4.9-13-1.4-13-1.4l-2.1,0.6l-2.1-0.6
	c0,0-10.9-3.5-13,1.7c-1.4-2-2.4-4.3-2.8-6.7L109.1,168.7z M129.6,175.4c12.3-2.1,10.1,5.1,10.1,5.3c-0.8,0.8-1.7,1.5-2.5,1.9
	c-4.8,2.6-5.2,2.2-7.1,2.3c-1.9,0.1-4.5-0.5-7.2-2c-0.8-0.4-2.1-1.4-3.5-2.6C119.3,180.4,117.4,173.8,129.6,175.4z"/>
<path class="st1" d="M120.7,164.9c0.9,0,1.6-1.1,1.6-2.4c0-1.3-0.7-2.4-1.6-2.4s-1.6,1.1-1.6,2.4
	C119.1,163.8,119.9,164.9,120.7,164.9z"/>
<path class="st1" d="M139,164.9c0.9,0,1.6-1.1,1.6-2.4c0-1.3-0.7-2.4-1.6-2.4c-0.9,0-1.6,1.1-1.6,2.4
	C137.4,163.8,138.1,164.9,139,164.9z"/>
<path class="st1" d="M144.9,154.5c0,0-6.3-2.5-11.2-0.4l0.5,2.7c0,0,7.1-0.6,10.8,0.8C145.4,156.7,145.4,155.7,144.9,154.5z"/>
<path class="st1" d="M114.8,154.5c0,0,6.4-2.5,11.3-0.4l-0.5,2.7c0,0-7.2-0.6-10.8,0.8C114.4,156.7,114.4,155.7,114.8,154.5z"/>
<path class="st5" d="M130.3,172.6c1,0,2-0.4,2.1-0.4c0.3-0.1,0.4-0.4,0.3-0.7s-0.4-0.4-0.7-0.3c-0.5,0.2-1.8,0.5-2.4,0.2
	c-0.1-0.1-0.2-0.2-0.3-0.5c-0.2-2.1,0.3-9,0.3-9.1c0-0.3-0.2-0.6-0.5-0.6c-0.3,0-0.6,0.2-0.6,0.5s-0.6,7.1-0.3,9.3
	c0.1,0.8,0.5,1.3,0.8,1.5C129.3,172.6,129.7,172.6,130.3,172.6z"/>
<path class="st8" d="M122.7,176.6c0.4,2.3,2,6.4,7,6.4c5,0,6.5-3.8,6.9-6.4H122.7z"/>
<path class="st1" d="M153,151.8c-0.2,5-1.4,11.4-2.3,16.4l-2.6-0.3c0,0,1.2-4.3,1.5-7c0.3-2.7,0.9-7.9-1.5-8.5
	c-2.4-0.6-1-6.5-4.2-9.1c-3.2-2.6-10.4-4.7-15.1-1.8c-4.7,2.9-10.2,1.3-12.3,1.8c-2.2,0.5-5.1,3.6-4.4,6.4c0.9,2.8-1.6,4.5-2.2,7.6
	c-0.5,2.9,1.4,11.1,1.4,11.1l-2.3,0.9c-1.2-6.5-1.7-13.5-1.7-18.1c0.1-4.7,2.7-9.1,6.7-11.4c11-6.4,22.8-4,30.5-1
	C149.8,140.8,153.2,146.1,153,151.8z"/>
<path class="st3" d="M182.3,384.7c-12,3-24,5-36,5.9c-0.5,0-1,0.1-1.7,0.1c-1.7,0.1-3.3,0.2-4.9,0.3c-8.2,0.3-16.4,0.2-24.5-0.4
	c-1.7-0.1-3.3-0.3-4.9-0.4c-0.5,0-1-0.1-1.6-0.2c-9.8-1-19.5-2.8-29.3-5.2c-0.1-9,0-37.4,0.5-68.2c0.1-3.7,0.1-7.4,0.2-11.2
	c0.8-40.6,2.5-81.8,5.6-86c2.8-4,11.5-9,19.8-13.5c0.5-0.3,0.9-0.5,1.5-0.8c1.9-1,3.7-2,5.3-2.9c3.7-2,6.8-3.8,8.8-5.1v1.2
	c0,0,4.5,5.9,9.4,5.5c4.6-0.4,8.1-5.7,8.7-6.6c2.2,1.6,6.1,3.7,10.6,6c1.3,0.6,2.5,1.4,3.9,2c0.5,0.2,0.9,0.5,1.5,0.7
	c9.1,4.8,19.1,10.4,22,14.4c0.2,0.3,0.4,0.8,0.6,1.5c1.8,6,2.8,25.7,3.5,49.5c0,0.1,0,0.2,0,0.2c0,0.9,0.1,1.9,0.1,2.9
	c0,0.1,0,0.2,0,0.4c0.2,8.4,0.4,17.2,0.5,26c0,0.7,0,1.4,0,2.1c0,0.3,0,0.7,0,1c0,1.8,0,3.5,0.1,5.2c0,1.3,0,2.5,0,3.9
	C182.5,345.1,182.4,375.3,182.3,384.7z"/>
<path class="st2" d="M181.5,274.4c-2.9-4.7-6-9.5-8.9-13.7c-1.3-1.8-2.4-3.5-3.6-5c0,0,0-0.1-0.1-0.1c-0.3-0.5-0.7-0.9-1-1.4
	c-0.1-0.1-0.1-0.2-0.1-0.2c-0.1-0.3,0-0.6,0.3-0.8c0.3-0.3,0.8-0.2,1.2,0.1c3.5,4.6,8,11.3,12.3,18.1c0,0.1,0,0.2,0,0.2
	C181.4,272.5,181.5,273.4,181.5,274.4z"/>
<path class="st3" d="M177.5,219.5c0,0,18,33.1,29.2,49.9c0,0,6.3-5.8,14.5-13.4c8.8-8.4,21-22.3,21-22.3l6.7,8
	c0,0-27.2,48.9-39.3,55.1s-34.6-37.3-34.6-37.3L177.5,219.5z"/>
<path class="st2" d="M100.9,350.1C100.9,350.1,100.8,350.1,100.9,350.1c-0.5,0-0.8-0.4-0.8-0.8c0.9-26.7-12.9-35.4-13.1-35.5
	c-0.4-0.2-0.5-0.7-0.3-1.2c0.2-0.4,0.7-0.5,1.2-0.3c0.1,0.1,3.8,2.3,7.3,8.1c3.3,5.2,7,14.5,6.5,28.9
	C101.6,349.8,101.3,350.1,100.9,350.1z"/>
<path class="st2" d="M160,324.9c-0.4,0-0.7-0.3-0.8-0.7c-0.4-5.7,1.5-9.8,3.8-15c0.7-1.6,1.4-3.1,2.1-4.8c4.5-11,2.3-23.7,2.2-23.8
	c-0.1-0.4,0.2-0.8,0.6-0.9c0.4-0.1,0.8,0.2,0.9,0.6c0.1,0.5,2.4,13.2-2.3,24.7c-0.7,1.8-1.5,3.4-2.1,4.9c-2.3,5.1-4,8.9-3.7,14.2
	C160.9,324.5,160.6,324.9,160,324.9z"/>
<path class="st8" d="M112.4,202.1c0.3,2.6,0.8,6.1,1.5,10c0.2,1.2,0.3,2.3,0.5,3.6c0.5,4,1.2,8.4,1.7,12.8c0.1,1.2,0.3,2.4,0.4,3.6
	c0.4,4.4,0.7,8.7,0.9,12.7c0,1.3,0.1,2.4,0,3.6c0,3-0.2,5.9-0.5,8.3c-0.2,1.6-0.4,3-0.6,4.5c-0.1,1.3-0.3,2.4-0.4,3.6
	c-0.5,4.5-0.7,8.8-0.7,12.8c0,1.3,0,2.4,0,3.6c0,4.5,0.3,8.8,0.6,12.8c0.1,1.2,0.2,2.4,0.3,3.6c0.5,4.4,1,8.6,1.7,12.7
	c0.2,1.2,0.3,2.4,0.5,3.6c0.2,1.9,0.5,3.8,0.6,5.7c0.2,2,0.3,4.4,0.4,7c0,1.2,0,2.3,0,3.6c0,3.9-0.1,8.3-0.3,12.8
	c0,1.2-0.1,2.4-0.2,3.6c-0.2,4.2-0.4,8.5-0.7,12.8c-0.1,1.2-0.2,2.4-0.3,3.6c-0.3,4.4-0.7,8.8-1,12.8c-0.1,1.3-0.2,2.4-0.3,3.6
	c-0.4,4.4-0.8,8.4-1.2,11.5c8.2,0.6,16.4,0.7,24.5,0.4c0.2-3.4,0.7-8.7,1.3-15.1c0.1-1.2,0.2-2.4,0.3-3.6c0.3-4.1,0.6-8.4,0.7-12.7
	c0-1.2,0.1-2.4,0.1-3.6c0.1-4.4,0.1-8.7-0.1-12.7c-0.1-1.3-0.1-2.4-0.2-3.6c-0.1-1.2-0.2-2.4-0.3-3.5c-0.4-3.1-0.5-6.3-0.5-9.2
	c0-1.2,0-2.4,0.1-3.6c0.2-4.2,0.6-8.3,1.2-12.7c0.1-1.2,0.3-2.4,0.4-3.6c0.5-3.9,0.9-8.1,1.4-12.7c0.1-1.2,0.2-2.4,0.3-3.6
	c0.3-3.9,0.4-8.1,0.5-12.7c0-1.2,0-2.4,0-3.6c0-4-0.2-8.2-0.5-12.8c0-0.4-0.1-0.8-0.1-1.3c-0.1-0.8-0.1-1.6-0.1-2.4
	c-0.2-4.2-0.1-8.5,0.1-12.7c0.1-1.2,0.1-2.4,0.2-3.6c0.3-4.3,0.8-8.5,1.4-12.6c0.2-1.3,0.3-2.4,0.5-3.6c0.6-4.4,1.4-8.6,2.1-12.4
	c0.2-1.3,0.4-2.4,0.6-3.6c0.4-2.5,0.8-4.8,1.2-6.7c-4.5-2.4-8.4-4.5-10.6-6c-0.6,0.9-4.1,6.3-8.7,6.6c-5,0.4-9.4-5.5-9.4-5.5v-1.2
	C119.4,198.4,116.1,200.1,112.4,202.1z"/>
<path class="st9" d="M113.9,212.1c0.2,1.2,0.3,2.3,0.5,3.6c4.5,0.1,9.9-0.5,16.1-2.1c6.8-1.6,12.9-1.3,17.6-0.4
	c0.2-1.3,0.4-2.4,0.6-3.6c-5.1-0.9-11.6-1.3-19.1,0.5C123.4,211.6,118.2,212.3,113.9,212.1z"/>
<path class="st9" d="M116.1,228.5c0.1,1.2,0.3,2.4,0.4,3.6c4.1-0.1,8.7-0.7,14.2-2c5.7-1.3,10.8-1.4,15.1-0.8
	c0.2-1.3,0.3-2.4,0.5-3.6c-4.6-0.5-10.2-0.5-16.4,0.9C124.5,227.7,120,228.3,116.1,228.5z"/>
<path class="st9" d="M117.4,244.7c0,1.3,0.1,2.4,0,3.6c3.8-0.2,8.2-0.8,13.2-2c4.9-1.2,9.5-1.3,13.4-0.9c0.1-1.2,0.1-2.4,0.2-3.6
	c-4.2-0.3-9.1-0.1-14.5,1C125.1,243.9,120.9,244.6,117.4,244.7z"/>
<path class="st9" d="M115.8,264.7c4.2,0,9-0.7,14.8-2.1c5-1.2,9.6-1.4,13.6-0.9c0-0.4-0.1-0.8-0.1-1.3c-0.1-0.8-0.1-1.6-0.1-2.4
	c-4.2-0.3-8.9-0.1-14.2,1.2c-5.2,1.3-9.8,1.9-13.6,2C116,262.3,115.9,263.5,115.8,264.7z"/>
<path class="st9" d="M115,281c4.4,0,9.5-0.6,15.6-2.1c5.2-1.3,10.1-1.4,14.2-0.9c0-1.2,0-2.4,0-3.6c-4.3-0.4-9.4-0.2-15,1
	c-5.8,1.4-10.7,2-14.8,2C115,278.7,115,279.8,115,281z"/>
<path class="st9" d="M115.7,293.8c0.1,1.2,0.2,2.4,0.3,3.6c4.2-0.1,8.9-0.7,14.6-2.1c4.9-1.2,9.4-1.4,13.4-0.9
	c0.1-1.2,0.2-2.4,0.3-3.6c-4.2-0.3-9.1-0.1-14.5,1C124.3,293.2,119.7,293.8,115.7,293.8z"/>
<path class="st9" d="M117.7,310c0.2,1.2,0.3,2.4,0.5,3.6c3.7-0.2,7.8-0.8,12.5-2c4.2-0.9,8.1-1.3,11.6-1c0.1-1.2,0.3-2.4,0.4-3.6
	c-3.9-0.2-8.2,0.1-12.8,1.2C125.2,309.2,121.1,309.9,117.7,310z"/>
<path class="st9" d="M119.3,326.3c0,1.2,0,2.3,0,3.6c3.4-0.3,7.1-0.9,11.3-1.9c3.7-0.8,7.2-1.2,10.4-1.2c0-1.2,0-2.4,0.1-3.6
	c-3.5,0-7.2,0.3-11.2,1.3S122.4,326.1,119.3,326.3z"/>
<path class="st9" d="M118.8,346.3c3.5-0.3,7.3-0.9,11.7-1.9c4.2-0.9,8-1.3,11.4-1c-0.1-1.3-0.1-2.4-0.2-3.6
	c-3.7-0.1-7.7,0.2-12.1,1.3c-4,0.9-7.6,1.6-10.8,1.8C118.9,343.9,118.9,345.1,118.8,346.3z"/>
<path class="st9" d="M117.8,362.7c3.8-0.2,8-0.8,12.8-2c4.1-0.9,8-1.3,11.4-1.2c0-1.2,0.1-2.4,0.1-3.6c-3.7-0.1-7.9,0.2-12.3,1.3
	c-4.4,1-8.3,1.7-11.7,1.9C118,360.3,117.9,361.5,117.8,362.7z"/>
<path class="st9" d="M116.4,379c4.1-0.1,8.7-0.7,14.2-2c3.7-0.8,7.1-1.2,10.4-1.2c0.1-1.2,0.2-2.4,0.3-3.6c-3.5,0-7.3,0.3-11.4,1.3
	c-4.9,1.2-9.3,1.8-13,2C116.6,376.7,116.5,377.9,116.4,379z"/>
<path class="st2" d="M144.6,390.8c0.5,0,1-0.1,1.7-0.1c3.3-18.9,1.4-46.7,0.6-55.2c-0.7-8.8,0.6-20.2,3.8-31.1
	c2.4-8.5,0.9-28.3-0.2-44.1c-0.3-4.4-0.6-8.7-0.8-12.2c-0.6-11.2,3.5-31.9,5.7-42.3c-0.5-0.3-0.9-0.5-1.5-0.7
	c-2.2,10.3-6.4,31.4-5.8,43.1c0.2,3.5,0.5,7.7,0.8,12.2c1.2,15.7,2.6,35.3,0.3,43.6c-3.1,11.1-4.5,22.8-3.8,31.8
	C146.1,344.1,147.9,372,144.6,390.8z"/>
<path class="st2" d="M111.7,313.8c1.9,11.6,1.3,19.2,0.6,27.9c-0.2,2.8-0.4,5.8-0.6,9c-0.5,10.2-2.2,30.5-2.9,39.3
	c0.5,0.1,1,0.1,1.6,0.2c0.7-8.8,2.5-29.3,2.9-39.4c0.2-3.3,0.4-6.1,0.6-8.9c0.7-8.8,1.3-16.5-0.6-28.3c-0.4-2.5-0.8-5.1-1.3-7.7
	c-2.1-12.7-4.4-25.8-3.4-32.1c0.2-1.6,0.6-3.3,0.9-5.1c1.5-7.6,3.1-17,2.6-25.2c-0.5-8.1-3.9-30.1-5.1-38.4
	c-0.5,0.3-0.9,0.5-1.5,0.8c1.4,8.7,4.5,29.8,5,37.6c0.5,8-1.3,17.3-2.6,24.7c-0.3,1.9-0.6,3.6-0.9,5.1c-1,6.5,1,19.2,3.4,32.6
	C110.9,308.7,111.3,311.2,111.7,313.8z"/>
<path class="st7" d="M80.5,232.9c0,0-16.1,54-20.2,73.2c-4,19.2-4.3,59.2-4.3,59.2s-7,14.7-7.2,21.2c-0.2,6.9,3.5,12.5,3,17.1
	c-0.4,4.5,5.1,2.1,3.6-7.1c-1.6-9.2,2.8-17.6,4.8-17.3c1.9,0.3-1.6,10.1,0.1,13.6c1.7,3.6,3.9-3.4,6.1-7.6
	c2.3-4.3,2.1-13.7,1.2-20.6c-1-6.7,11.2-47.7,11.2-59.6l15.5-52.3C94.2,252.9,89.1,231,80.5,232.9z"/>
<path class="st3" d="M96.2,251.5c-0.5,3.5-2.5,9.4-4.9,16.9c-0.2,0.6-0.4,1.3-0.6,1.9v0.1c-0.6,1.9-1.3,3.8-1.9,5.9
	c-2.7,8.3-5.8,17.8-8.3,27.7c-0.8,3.4-1.7,6.7-2.4,10.2c-0.9,4.3-1.7,8.6-2.3,12.8c-2.1,15.2-6,34.4-6,34.4
	c-5.8,2.4-14.9-0.7-14.9-0.7s-0.2-27.7,1-38.4c1.6-13.3,3.7-22.8,6.2-33.6c6.9-29.9,19.2-59.1,22.5-66.9c0.3-0.6,0.5-1,0.6-1.5h2.9
	C93.6,223.8,97.7,242.2,96.2,251.5z"/>
<path class="st2" d="M54.1,355l0.4,6.4c0,0,8.6,2.8,15.1,0.8l1.7-5.7C65.1,356.8,59.4,356.7,54.1,355z"/>
<path class="st2" d="M91.1,268.4c0,0.1,0,0.2,0,0.3c-0.2,0.5-0.4,1-0.6,1.7v0.1c-0.6,1.8-1.3,3.8-1.9,5.9
	c-3.4,10.7-6.8,24.2-8.4,32.9c0-1.8,0-3.5,0.1-5.2c-0.8,3.4-1.7,6.7-2.4,10.2c0.3-3.1,1.3-7.9,2.5-13.3c2.5-10.9,6.3-24.3,9.3-32.6
	c0.1-0.4,0.6-0.6,1-0.5C90.9,267.9,91.1,268.1,91.1,268.4z"/>
<path class="st1" d="M380.8,411.2h38.3c-0.1-2.6-0.2-5.2-0.4-7.6c-0.6-13.1-1.3-22-1.3-22l-31.1,1.4l-2.6,0.1l-4.6,0.2
	c0,0,0.4,8,1.2,19.6C380.4,405.6,380.6,408.3,380.8,411.2z"/>
<path class="st4" d="M383.7,383.1l-4.6,0.2c0,0,0.4,8,1.2,19.6c12,0.9,25,1.4,38.4,0.6c-0.6-13.1-1.3-22-1.3-22l-31.1,1.4
	L383.7,383.1z"/>
<path class="st4" d="M387.9,411.2c-0.7-12.2-1.3-22.4-1.6-28.2l-2.6,0.1c0.3,5.8,0.8,16,1.6,28.1H387.9L387.9,411.2z"/>
<path class="st1" d="M369.6,411.2c0.2-3.3,0.4-6.4,0.5-9.2c0.6-11.1,1-18.7,1-18.7l-4.9-0.2l-2.6-0.1l-30.7-1.4
	c0,0-0.3,5.3-0.8,13.7c-0.2,4.5-0.5,9.9-0.8,15.8H369.6z"/>
<path class="st4" d="M332.1,395.4c8.4,2,21.8,4.7,38,6.6c0.6-11.1,1-18.7,1-18.7l-4.9-0.2l-2.6-0.1l-30.7-1.4
	C332.9,381.6,332.5,386.9,332.1,395.4z"/>
<path class="st4" d="M364.6,411.2c0.7-12.1,1.3-22.4,1.6-28.1l-2.6-0.1c-0.3,5.8-0.8,16.1-1.6,28.2H364.6L364.6,411.2z"/>
<path class="st3" d="M422.9,387.5c-7.8,2.1-15.6,3.8-23.4,4.8c-2.7,0.4-5.5,0.7-8.1,0.9c-3.7,0.3-7.3,0.5-10.9,0.6
	c-6.1,0.2-12.1,0.1-18.1-0.4c-11.6-0.8-23.4-2.9-35-6.1c-0.1-10.9,0.1-49.9,0.8-87.6c0-1.7,0.1-3.4,0.1-5c0-0.3,0-0.7,0-1
	c0-0.4,0-0.7,0-1.2c0-1.2,0.1-2.4,0.1-3.6c0.1-2.4,0.1-4.8,0.2-7.2c0-1.5,0.1-2.8,0.1-4.2c0-0.3,0-0.6,0-0.8c0-0.9,0.1-1.9,0.1-2.7
	c0-0.3,0-0.5,0-0.8c0-0.8,0.1-1.7,0.1-2.5c0-0.7,0-1.4,0.1-2.1c0.9-25.4,2.2-45.4,4.1-48.2c3.3-4.8,14.2-11.1,23-16.4
	c3.1-1.9,6.9-3.8,9-5.1c3.1,2.5,5.3,4.8,10,4.6c5.1-0.2,6.5-3.3,8.4-6c1.2,0.7,4.3,3.3,5.9,4.2c1.4,0.8,2.8,1.7,4.4,2.5
	c2.4,1.4,4.9,2.8,7.4,4.3c3.7,2.2,7.3,4.4,10.4,6.6c3,2.2,5.5,4.2,6.6,6c1.7,2.6,2.8,19.3,3.6,41.2c0,0.7,0,1.6,0.1,2.3
	c0,0.1,0,0.2,0,0.3c0,0.8,0.1,1.6,0.1,2.4c0.1,2.5,0.1,5,0.2,7.6c0,0.5,0,1,0,1.7c0,0.4,0,0.8,0,1.3c0,1,0,2.1,0.1,3.1
	c0,0.2,0,0.4,0,0.6c0.1,2.8,0.1,5.7,0.2,8.6c0,0.8,0,1.7,0,2.5C423.3,332.5,423,375.9,422.9,387.5z"/>
<path class="st2" d="M422.6,292.9l-12.4,12.5l-11.5-11.6l-11.5,11.6l-11.5-11.7l-11.5,11.7l-11.6-11.7l-11.6,11.7l-12.6-12.7
	c0-1.2,0.1-2.4,0.1-3.6c0.1-2.4,0.1-4.8,0.2-7.2l12.3-12.5l11.6,11.7l11.6-11.7l11.5,11.7l11.5-11.7l11.5,11.6l11.5-11.6l12.2,12.3
	c0.1,2.8,0.1,5.7,0.2,8.6C422.5,291.3,422.5,292.1,422.6,292.9z"/>
<path class="st2" d="M401.3,357.4c-16.6-0.1-30.6-7.6-39.5-13.8c-9.6-6.8-15.5-13.7-15.5-13.7c-0.3-0.3-0.2-0.8,0.1-1.2
	c0.3-0.3,0.8-0.2,1.2,0.1c0.1,0.1,5.8,6.8,15.3,13.5c8.7,6.2,22.5,13.5,38.6,13.5c0.4,0,0.8,0.3,0.8,0.8
	C402.1,357.1,401.8,357.4,401.3,357.4z"/>
<path class="st2" d="M391,347.7c-14.1-2.7-26.5-13.5-27.1-14.1c-0.3-0.3-0.3-0.8-0.1-1.2c0.3-0.3,0.8-0.3,1.2-0.1
	c0.1,0.1,14.8,12.8,29.7,14.2c0.4,0,0.7,0.4,0.7,0.8s-0.4,0.7-0.8,0.7C393.4,348.1,392.2,347.9,391,347.7z"/>
<path class="st2" d="M362.9,225.4c-0.4,0-0.7-0.3-0.7-0.6c-0.1-0.4,0.2-0.8,0.6-0.9c20.1-3.8,26.2-16.8,26.2-16.9
	c0.2-0.4,0.6-0.6,1-0.4c0.4,0.2,0.6,0.6,0.4,1c-0.2,0.5-6.5,13.8-27.4,17.8C363,225.4,362.9,225.4,362.9,225.4z"/>
<path class="st2" d="M338.2,260.3c0,0.1-0.1,0.2-0.1,0.2c-0.3,0.5-0.6,0.9-0.9,1.5v0.1c-1,1.7-2.1,3.4-3.1,5.2
	c-1.7,2.9-3.5,6.2-5.1,9.4c0-0.9,0.1-1.9,0.1-2.7c0-0.3,0-0.5,0-0.8c2.7-5.1,5.6-10,7.9-13.5c0.2-0.4,0.7-0.5,1-0.2
	C338.2,259.7,338.3,260,338.2,260.3z"/>
<path class="st7" d="M439.7,230.9c0,0,25.8-8.3,33.3-25.2c2.2-4.9-15.9-54.5-15.9-54.5l-8.8,0.4c0,0,2.5,17.2,4,27
	c1.3,8.1,3.3,17.6,4,20.8c0.1,0.7,0.2,1,0.2,1c-0.4,0.1-0.8,0.1-1.3,0.2c-12.1,2.4-27.4,10.3-27.4,10.3L439.7,230.9z"/>
<path class="st5" d="M463,205.2c0.3,0.3,0.8,0.2,1.2-0.2c0.3-0.4,0.2-0.8-0.2-1.2c-1.9-1.4-4.7-2.9-7.7-4.5c0.1,0.7,0.2,1,0.2,1
	c-0.4,0.1-0.8,0.1-1.3,0.2C458.3,202.1,461.2,203.8,463,205.2z"/>
<path class="st3" d="M400.3,208.1c0,0-7.8,18.2,12.1,28.4c13.7,7,45-11.3,45-11.3l-11.1-23.7C446.2,201.6,417.6,213.3,400.3,208.1z"
	/>
<path class="st7" d="M452.6,123.2c-0.7,0.5-0.6,3.9-0.3,7c-0.1,0-0.2,0-0.3,0.1c-0.9-4.2-2.7-11.4-4.3-10.1c-1,0.9,0.3,7.1,1.3,10.8
	c-0.2,0.1-0.4,0.1-0.6,0.2c-1.2-4.4-3.8-12.9-5.5-11.2c-1.2,1,1,8.6,2.2,12.4c-0.2,0.1-0.3,0.1-0.5,0.2c-1.2-3.7-3.6-10.7-5.3-9
	c-1.6,1.5,2.8,12.1,2.8,12.1l1.2,4.1c0,0-1.4,0.6-3.5-1.8c-2.1-2.4-4.7-2.8-2.9,0.6c2,4,4.9,6.8,6.3,9.5c1.3,2.8,5.5,3.7,5.5,3.7
	l8.2-0.4c0,0,1.6-13.9-1.5-20.6C454.9,126.9,454,122.2,452.6,123.2z"/>
<path class="st1" d="M350.8,155.3c0,14.1,8.6,23.7,22.7,23.7c14.1,0,23.8-10.4,23.8-24.4c0-3.9-0.6-7.4-1.9-10.7
	c-0.1-0.2-0.1-0.4-0.2-0.5c-0.1-0.3-0.3-0.7-0.4-1c-0.2-0.5-0.5-1-0.8-1.6c-3.7-6.6-10.2-10.7-19-10.7
	C358.1,129.9,350.8,141.2,350.8,155.3z"/>
<path class="st5" d="M354,161.2c0,0-3.9-5.2-6.8-0.9c-2.9,4.3,1.2,17,8.3,13.8L354,161.2z"/>
<path class="st6" d="M353.9,170.4c-0.2,0-0.5-0.2-0.5-0.4c-1-3.9-5.1-5.5-5.2-5.6c-0.3-0.1-0.4-0.4-0.3-0.7c0.1-0.3,0.4-0.4,0.7-0.3
	c0.2,0.1,4.6,1.8,5.9,6.3c0.1,0.3-0.1,0.6-0.4,0.7C354,170.4,354,170.4,353.9,170.4z"/>
<path class="st6" d="M349.9,168.4c-0.1,0-0.2,0-0.3-0.1c-0.3-0.2-0.3-0.5-0.2-0.8c0,0,0.7-1.2,2.2-1.8c0.3-0.1,0.6,0,0.8,0.3
	c0.1,0.3,0,0.6-0.3,0.8c-1.2,0.5-1.7,1.4-1.7,1.4C350.3,168.3,350.1,168.4,349.9,168.4z"/>
<path class="st5" d="M394.1,161.2c0,0,3.9-5.2,6.8-0.9c2.9,4.3-1.2,17-8.3,13.8L394.1,161.2z"/>
<path class="st6" d="M394.2,170.4c0.2,0,0.5-0.2,0.5-0.4c1-3.9,5.1-5.5,5.2-5.6c0.3-0.1,0.4-0.4,0.3-0.7c-0.1-0.3-0.4-0.4-0.7-0.3
	c-0.2,0.1-4.6,1.8-5.9,6.3c-0.1,0.3,0.1,0.6,0.4,0.7C394.1,170.4,394.1,170.4,394.2,170.4z"/>
<path class="st6" d="M398.3,168.4c0.1,0,0.2,0,0.3-0.1c0.3-0.2,0.3-0.5,0.2-0.8c0,0-0.7-1.2-2.2-1.8c-0.3-0.1-0.6,0-0.8,0.3
	c-0.1,0.3,0,0.6,0.3,0.8c1.2,0.5,1.7,1.4,1.7,1.4C397.9,168.3,398.1,168.4,398.3,168.4z"/>
<path class="st7" d="M383.6,185v12.6c0,0-3.8,6.4-8.8,6.8c-5,0.4-9.5-5.6-9.5-5.6v-13L383.6,185z"/>
<path class="st5" d="M383.6,185v5.6c-3.5,3.8-9.4,4.7-18.5,3.5V186L383.6,185z"/>
<path class="st7" d="M396.9,152.6c-0.2,4.9-0.7,11-1.7,15.9c-0.2,1.3-0.5,2.4-0.8,3.4c-2.6,9.3-9.3,25.3-27.9,18.6
	c-8.2-2.9-12.1-12.1-13.7-21.4c-1.2-6.3-1.4-12.7-1.3-17.3c0.1-4.6,2.6-8.9,6.7-11.2c11-6.2,22.5-3.9,30.2-0.9
	C393.8,141.8,397.3,147,396.9,152.6z"/>
<path class="st1" d="M364.5,165.3c0.9,0,1.6-1.1,1.6-2.4s-0.7-2.4-1.6-2.4c-0.9,0-1.6,1.1-1.6,2.4S363.7,165.3,364.5,165.3z"/>
<path class="st1" d="M382.8,165.3c0.9,0,1.6-1.1,1.6-2.4s-0.7-2.4-1.6-2.4c-0.9,0-1.6,1.1-1.6,2.4S381.9,165.3,382.8,165.3z"/>
<path class="st1" d="M387.8,154.5c0,0-4.9-1.9-8.7-0.3l0.4,2.1c0,0,5.6-0.4,8.3,0.6C388.1,156.1,388.1,155.4,387.8,154.5z"/>
<path class="st1" d="M359.4,154.5c0,0,4.9-1.9,8.7-0.3l-0.4,2.1c0,0-5.6-0.4-8.3,0.6C359.1,156.1,359.1,155.4,359.4,154.5z"/>
<path class="st5" d="M374.3,173.2c1,0,2-0.4,2.2-0.4c0.3-0.1,0.4-0.5,0.3-0.7c-0.1-0.3-0.5-0.4-0.7-0.3c-0.5,0.2-1.9,0.5-2.4,0.2
	c-0.1-0.1-0.2-0.2-0.3-0.5c-0.2-2.1,0.3-9.1,0.3-9.1c0-0.3-0.2-0.6-0.5-0.6c-0.3,0-0.6,0.2-0.6,0.5c0,0.3-0.6,7.2-0.3,9.4
	c0.1,0.8,0.5,1.3,0.8,1.5C373.3,173.1,373.8,173.2,374.3,173.2z"/>
<path class="st8" d="M366.2,176.2c0.9,3.5,3.8,6.9,7.8,6.9c3.9,0,6.7-3.5,7.8-6.9H366.2z"/>
<path class="st5" d="M373.7,186.9c1.6,0,2.8-0.7,2.9-0.8c0.3-0.2,0.4-0.5,0.2-0.8c-0.2-0.3-0.5-0.4-0.8-0.2c0,0-1,0.6-2.3,0.6
	c-1.2,0-2.2-0.6-2.2-0.6c-0.3-0.2-0.6-0.1-0.8,0.2c-0.2,0.3-0.1,0.6,0.2,0.8C370.8,186.1,372.2,186.9,373.7,186.9z"/>
<path class="st1" d="M396.3,161.3h-2.7c0.3-2.9,0.7-8-1.5-8.7c-7.1-2.3,2.1-7.6-1.1-10.3c-3.2-2.7-11.2-1.6-16.8-1.7
	c-5.6-0.2-14.6-0.1-16.8,0.4c-2.2,0.6-1,4.4-0.2,7.4c0.8,3-2.6,6.3-3.3,9.4c-0.2,0.9-0.1,2.2,0,3.6h-2.3c-0.3-3.8-0.3-7.3-0.2-10.1
	c0.1-4.9,2.6-9.5,6.8-12c11.1-6.6,22.7-4.1,30.5-1c5.3,2.1,8.8,7.7,8.5,13.7C396.8,155,396.6,158.2,396.3,161.3z"/>
<path class="st8" d="M364.2,169.9c-3.8,0-6.8-3-6.8-6.8s3-6.8,6.8-6.8c3.8,0,6.8,3,6.8,6.8S368,169.9,364.2,169.9z M364.2,157.5
	c-3.1,0-5.8,2.5-5.8,5.8c0,3.1,2.5,5.8,5.8,5.8c3.1,0,5.8-2.5,5.8-5.8C370,160.1,367.5,157.5,364.2,157.5z"/>
<path class="st8" d="M382.8,169.9c-3.8,0-6.8-3-6.8-6.8s3-6.8,6.8-6.8s6.8,3,6.8,6.8S386.6,169.9,382.8,169.9z M382.8,157.5
	c-3.1,0-5.8,2.5-5.8,5.8c0,3.1,2.5,5.8,5.8,5.8c3.3,0,5.8-2.5,5.8-5.8C388.5,160.1,385.9,157.5,382.8,157.5z"/>
<path class="st8" d="M358.7,161c-0.1,0-0.3,0-0.4-0.1c0,0-3.1-3-7.1-2.1c-0.3,0.1-0.5-0.1-0.6-0.4s0.1-0.5,0.4-0.6
	c4.6-1,8,2.2,8.2,2.3c0.2,0.2,0.2,0.5,0,0.7C358.9,160.9,358.8,161,358.7,161z"/>
<path class="st8" d="M388.5,161c-0.2,0-0.3-0.1-0.4-0.2c-0.2-0.2-0.1-0.5,0.1-0.7c0.2-0.1,5-3.3,9.1-2.5c0.3,0,0.5,0.3,0.4,0.6
	c0,0.3-0.3,0.5-0.6,0.4c-3.7-0.6-8.3,2.4-8.3,2.4C388.8,161,388.7,161,388.5,161z"/>
<path class="st8" d="M376.4,161.7c0,0-1.3-1.7-2.9-1.7s-2.7,1.7-2.8,1.7l-0.8-0.6c0.1-0.1,1.5-2.2,3.7-2.2c2.2,0,3.7,2.1,3.8,2.2
	L376.4,161.7z"/>
<path class="st7" d="M336,259.3c0,0-7.1,13.8-15.5,24.7c-2.5,3.3-5,6.2-7.7,8.5c-4.1,3.8-8.2,5.7-11.4,4
	c-12.2-6.2-39.3-55.1-39.3-55.1l6.7-8c0,0,12.1,13.9,21,22.3c8.2,7.7,14.5,13.4,14.5,13.4c1.2-1.7,2.3-3.6,3.6-5.6
	c1.4-2.1,2.7-4.4,4.1-6.6c10.2-16.7,21.5-36.8,21.5-36.8L336,259.3z"/>
<path class="st5" d="M320.5,284.1c-2.5,3.3-5,6.2-7.7,8.5l-5.1-28.7c1.4-2.1,2.7-4.4,4.1-6.6L320.5,284.1z"/>
<path class="st3" d="M333.3,220.5l-24.4,38.4l8.2,33.8l20.2-32.9C337.3,259.7,339.7,237.3,333.3,220.5z"/>
<path class="st3" d="M302.6,411.2c-1.8-9.6-3.5-20.6-5-31.1c-0.3-2.3-0.6-4.6-1-6.9c-1.3-8.8-2.4-17.1-3.3-23.9
	c-0.3-2.6-0.6-5-0.9-7.1c-0.8-6.8-1.4-11.1-1.4-11.1l-38.6,1.5l-38.7-1.5c0,0-1,8.4-2.6,20.7c-0.3,2.2-0.6,4.6-0.9,7
	c-0.8,6.4-1.9,13.5-2.9,20.8c0,0.1,0,0.2,0,0.3c-0.3,2.3-0.6,4.5-1,6.8v0.1c-0.8,5.5-1.7,11-2.6,16.3c-0.3,2.2-0.7,4.3-1,6.4
	c-0.1,0.6-0.2,1.3-0.3,1.9H302.6z"/>
<path class="st2" d="M219,346.1c2,0,3.7-1.6,3.7-3.7c0-2-1.6-3.7-3.7-3.7c-2,0-3.7,1.6-3.7,3.7C215.3,344.5,217,346.1,219,346.1z"/>
<path class="st2" d="M228,360.2c2,0,3.7-1.6,3.7-3.7c0-2-1.6-3.7-3.7-3.7s-3.7,1.6-3.7,3.7C224.3,358.5,226,360.2,228,360.2z"/>
<path class="st2" d="M245.7,352.9c2,0,3.7-1.6,3.7-3.7s-1.6-3.7-3.7-3.7s-3.7,1.6-3.7,3.7S243.7,352.9,245.7,352.9z"/>
<path class="st2" d="M217.7,375.2c2,0,3.7-1.6,3.7-3.7c0-2-1.6-3.7-3.7-3.7s-3.7,1.6-3.7,3.7C214.1,373.5,215.7,375.2,217.7,375.2z"
	/>
<path class="st2" d="M239.8,373.6c2,0,3.7-1.6,3.7-3.7c0-2-1.6-3.7-3.7-3.7s-3.7,1.6-3.7,3.7C236.2,371.9,237.8,373.6,239.8,373.6z"
	/>
<path class="st2" d="M213.5,354.9c0,1.9-1.5,3.5-3.3,3.6c0.3-2.4,0.6-4.8,0.9-7C212.5,352.1,213.5,353.3,213.5,354.9z"/>
<path class="st2" d="M276,395c2,0,3.7-1.6,3.7-3.7s-1.6-3.7-3.7-3.7c-2,0-3.7,1.6-3.7,3.7S274,395,276,395z"/>
<path class="st2" d="M274.3,375.2c2,0,3.7-1.6,3.7-3.7c0-2-1.6-3.7-3.7-3.7c-2,0-3.7,1.6-3.7,3.7
	C270.7,373.5,272.3,375.2,274.3,375.2z"/>
<path class="st2" d="M297.5,380.1c-0.4,0.2-0.9,0.3-1.5,0.3c-2,0-3.7-1.7-3.7-3.7c0-2,1.7-3.7,3.7-3.7c0.1,0,0.3,0,0.4,0
	C296.9,375.4,297.2,377.7,297.5,380.1z"/>
<path class="st2" d="M277.9,409.4c2,0,3.7-1.6,3.7-3.7s-1.6-3.7-3.7-3.7s-3.7,1.6-3.7,3.7S275.9,409.4,277.9,409.4z"/>
<path class="st2" d="M293.4,403.7c2,0,3.7-1.6,3.7-3.7c0-2-1.6-3.7-3.7-3.7c-2,0-3.7,1.6-3.7,3.7C289.8,402,291.4,403.7,293.4,403.7
	z"/>
<path class="st2" d="M264.8,411.2c-0.6-0.9-1.8-1.6-3-1.6c-1.3,0-2.3,0.6-3,1.6H264.8z"/>
<path class="st2" d="M215.3,398.1c2,0,3.7-1.6,3.7-3.7c0-2-1.6-3.7-3.7-3.7s-3.7,1.6-3.7,3.7C211.6,396.5,213.3,398.1,215.3,398.1z"
	/>
<path class="st2" d="M209.3,383c0,1.9-1.4,3.4-3.1,3.6v-0.1c0.3-2.3,0.7-4.5,1-6.8C208.5,380.2,209.3,381.4,209.3,383z"/>
<path class="st2" d="M205.1,405.8c0,1.7-1,3-2.6,3.5c0.4-2.1,0.7-4.2,1-6.4C204.5,403.6,205.1,404.6,205.1,405.8z"/>
<path class="st2" d="M224.3,411c2,0,3.7-1.6,3.7-3.7s-1.6-3.7-3.7-3.7c-2,0-3.7,1.6-3.7,3.7S222.3,411,224.3,411z"/>
<path class="st2" d="M243.5,408.2c2,0,3.7-1.6,3.7-3.7c0-2-1.6-3.7-3.7-3.7c-2,0-3.7,1.6-3.7,3.7
	C239.8,406.5,241.5,408.2,243.5,408.2z"/>
<path class="st2" d="M229.9,390.3c2,0,3.7-1.6,3.7-3.7c0-2-1.6-3.7-3.7-3.7c-2,0-3.7,1.6-3.7,3.7
	C226.2,388.6,227.9,390.3,229.9,390.3z"/>
<path class="st2" d="M249.4,386.7c2,0,3.7-1.6,3.7-3.7c0-2-1.6-3.7-3.7-3.7s-3.7,1.6-3.7,3.7C245.7,385,247.4,386.7,249.4,386.7z"/>
<path class="st2" d="M258.1,367.5c2,0,3.7-1.6,3.7-3.7s-1.6-3.7-3.7-3.7s-3.7,1.6-3.7,3.7S256.1,367.5,258.1,367.5z"/>
<path class="st2" d="M293.2,349.2c-0.2,0.1-0.5,0.1-0.7,0.1c-2,0-3.7-1.7-3.7-3.7c0-2,1.6-3.6,3.5-3.7
	C292.6,344.1,292.9,346.5,293.2,349.2z"/>
<path class="st2" d="M270.7,352.9c2,0,3.7-1.6,3.7-3.7s-1.6-3.7-3.7-3.7c-2,0-3.7,1.6-3.7,3.7S268.7,352.9,270.7,352.9z"/>
<path class="st2" d="M284,365.9c2,0,3.7-1.6,3.7-3.7s-1.6-3.7-3.7-3.7c-2,0-3.7,1.6-3.7,3.7S282,365.9,284,365.9z"/>
<path class="st2" d="M261.8,398.1c2,0,3.7-1.6,3.7-3.7c0-2-1.6-3.7-3.7-3.7c-2,0-3.7,1.6-3.7,3.7
	C258.1,396.5,259.7,398.1,261.8,398.1z"/>
<path class="st2" d="M293.3,331.8c-20.3,13.3-57.7,12.3-81.2,0c2.2-13.9,5.2-27.9,4.5-46.6c-0.1-2-0.2-4.1-0.2-6.1
	c-0.1-1.8-0.2-3.5-0.3-5.2c-2-30.9-7.3-56.2-4.7-59.5c1.2-1.5,3-2.9,5.3-4.5c0.9-0.6,1.9-1.3,2.9-1.9c2.4-1.5,5.1-2.9,7.9-4.4
	c6.5-3.5,13-6.6,16.3-8.8c3.3,1.5,5.9,2.2,8.6,2.2c0.1,0,0.2,0,0.2,0c0.1,0,0.2,0,0.2,0c2.8,0,5.3-0.7,8.6-2.2c3,2,8.8,4.8,14.7,8
	c4.3,2.3,8.7,4.7,12.1,7c2.2,1.6,4.1,3,5.1,4.4c1.3,1.6,0.7,8.7-0.3,19.2c-1,10.4-2.7,24-3.7,39c-0.3,4.2-0.5,8.5-0.6,12.8
	C288.1,303.8,291,317.9,293.3,331.8z"/>
<path class="st3" d="M280.9,316.4c-16.4-0.1-30.4-7.6-39.2-13.7c-9.5-6.7-15.3-13.6-15.4-13.6c-0.3-0.3-0.2-0.8,0.1-1.2
	c0.3-0.3,0.8-0.2,1.2,0.1c0.1,0.1,5.8,6.8,15.2,13.4c8.7,6.1,22.3,13.4,38.3,13.4c0.4,0,0.8,0.3,0.7,0.8
	C281.6,316,281.3,316.4,280.9,316.4z"/>
<path class="st3" d="M270,306.9c-13.9-2.7-26.3-13.4-26.8-13.9c-0.3-0.3-0.3-0.7-0.1-1.2c0.3-0.3,0.7-0.3,1.2-0.1
	c0.1,0.1,14.7,12.7,29.5,14.1c0.4,0,0.7,0.4,0.7,0.8s-0.4,0.7-0.8,0.7C272.4,307.3,271.2,307.1,270,306.9z"/>
<path class="st3" d="M249.4,234.7c-0.4,0-0.7-0.3-0.7-0.6c-0.1-0.4,0.2-0.8,0.6-0.9c19.9-3.8,26-16.7,26-16.8c0.2-0.4,0.6-0.5,1-0.4
	c0.4,0.2,0.5,0.6,0.4,1c-0.2,0.5-6.4,13.7-27.2,17.6C249.5,234.7,249.4,234.7,249.4,234.7z"/>
<path class="st7" d="M276.2,202.8c-4,9-13.7,18.4-26.4,16.3c-12.3-2.1-18.1-8.6-22.3-15.3c6.5-3.5,13-6.6,16.3-8.8
	c3.3,1.5,5.9,2.2,8.6,2.2c0.1,0,0.2,0,0.2,0c0.1,0,0.2,0,0.2,0c2.8,0,5.3-0.7,8.6-2.2C264.6,196.9,270.4,199.7,276.2,202.8z"/>
<path class="st8" d="M265.6,195.5c-0.3,0-0.6,0.3-0.6,0.6c0,0.5-0.2,12.5-10.9,13.4c-10,0.8-14.1-8.7-15.3-12.6
	c-0.1-0.2-0.3-0.4-0.5-0.4h-0.2c-0.4,0-0.6,0.4-0.5,0.7c1.4,4.1,5.7,13.9,15.8,13.5c0.3,0,0.5,0,0.8,0c11.8-1,12.1-14.5,12.1-14.6
	C266.3,195.8,266,195.5,265.6,195.5z"/>
<path class="st1" d="M273.2,132c0,0,9.5,14.9,8.5,30.3c-1,15.5,1.4,33.3-12.5,32.5c-13.8-0.7-38.5,5.6-46.4-6.5
	C215.1,176.3,273.2,132,273.2,132z"/>
<path class="st4" d="M276.8,159.3c0,0,2.5,22.4-8.2,28.6c-10.6,6.2-18.4-0.7-18.4-0.7S272.7,155.9,276.8,159.3z"/>
<path class="st5" d="M232.6,159.2c0,0-3.8-5.1-6.7-0.8c-2.8,4.2,1.2,16.7,8.2,13.6L232.6,159.2z"/>
<path class="st6" d="M232.5,168c-0.2,0-0.5-0.2-0.5-0.4c-1-3.9-5-5.3-5.1-5.5c-0.3-0.1-0.4-0.4-0.3-0.7c0.1-0.3,0.4-0.4,0.7-0.3
	c0.2,0.1,4.6,1.8,5.8,6.2c0.1,0.3-0.1,0.6-0.4,0.7C232.6,168,232.6,168,232.5,168z"/>
<path class="st6" d="M228.5,166.2c-0.1,0-0.2,0-0.3-0.1c-0.3-0.2-0.3-0.5-0.2-0.8c0,0,0.7-1.2,2.2-1.8c0.3-0.1,0.6,0,0.7,0.3
	c0.1,0.3,0,0.6-0.3,0.7c-1.2,0.5-1.7,1.4-1.7,1.4C228.8,166.1,228.7,166.2,228.5,166.2z"/>
<path class="st5" d="M271.9,159.2c0,0,3.8-5.1,6.7-0.8c2.8,4.2-1.2,16.7-8.2,13.6L271.9,159.2z"/>
<path class="st6" d="M271.9,168c0.2,0,0.5-0.2,0.5-0.4c1-3.9,5-5.3,5.1-5.5c0.3-0.1,0.4-0.4,0.3-0.7c-0.1-0.3-0.4-0.4-0.7-0.3
	c-0.2,0.1-4.6,1.8-5.8,6.2c-0.1,0.3,0.1,0.6,0.4,0.7H271.9z"/>
<path class="st6" d="M276,166.2c0.1,0,0.2,0,0.3-0.1c0.3-0.2,0.3-0.5,0.2-0.8c0,0-0.7-1.2-2.2-1.8c-0.3-0.1-0.6,0-0.7,0.3
	c-0.1,0.3,0,0.6,0.3,0.7c1.2,0.5,1.7,1.4,1.7,1.4C275.6,166.1,275.8,166.2,276,166.2z"/>
<path class="st7" d="M261.7,182.5v12.4c0,0-3.7,6.3-8.7,6.7c-5,0.4-9.4-5.5-9.4-5.5v-12.8L261.7,182.5z"/>
<path class="st5" d="M261.7,182.5v5.5c-3.4,3.7-9.3,5-18.1,3.8v-8.4L261.7,182.5z"/>
<path class="st7" d="M274.7,150.7c-0.2,4.8-0.7,10.8-1.6,15.6c-0.2,1.2-0.5,2.3-0.7,3.4c-2.6,9.1-9.1,24.7-27.4,18.2
	c-8.1-2.8-11.7-11.8-13.4-21c-1.2-6.2-1.3-12.5-1.3-16.9c0.1-4.6,2.6-8.7,6.5-11c10.8-6.1,22.1-3.8,29.6-0.9
	C271.6,140,275,145.2,274.7,150.7z"/>
<path class="st1" d="M242.7,162.4c0.8,0,1.5-1.1,1.5-2.4s-0.7-2.4-1.5-2.4s-1.5,1.1-1.5,2.4S241.9,162.4,242.7,162.4z"/>
<path class="st1" d="M261.5,162.4c0.8,0,1.5-1.1,1.5-2.4s-0.7-2.4-1.5-2.4c-0.8,0-1.5,1.1-1.5,2.4S260.6,162.4,261.5,162.4z"/>
<path class="st1" d="M239.7,152.8c1.3-0.3,3.8-0.9,6.5-0.9c0.7,0,1.3,0.6,1.2,1.4c-0.1,0.5-0.6,0.9-1.2,0.9c-1.8-0.1-6.6,0.2-8.9,1
	c0-0.4,0.2-0.8,0.5-1.3C238.3,153.4,238.9,153.1,239.7,152.8z"/>
<path class="st1" d="M264.3,152.8c-1.3-0.3-3.8-0.9-6.5-0.9c-0.7,0-1.3,0.6-1.2,1.4c0.1,0.5,0.6,0.9,1.2,0.9c1.8-0.1,6.6,0.2,8.9,1
	c0-0.4-0.2-0.8-0.5-1.3C265.6,153.5,265,153.1,264.3,152.8z"/>
<path class="st5" d="M252.4,170.9c-0.4,0-0.9-0.1-1.3-0.3s-0.7-0.6-0.8-1.5c-0.2-2.2,0.3-8.9,0.3-9.2c0-0.3,0.3-0.5,0.6-0.5
	c0.3,0,0.5,0.3,0.5,0.6c0,0.1-0.5,6.9-0.3,9c0,0.3,0.2,0.5,0.3,0.5c0.5,0.3,1.8,0,2.3-0.2c0.3-0.1,0.6,0,0.7,0.3
	c0.1,0.3,0,0.6-0.3,0.7C254.4,170.5,253.5,170.9,252.4,170.9z"/>
<path class="st8" d="M245,174.5c0.4,2.2,1.9,6.4,6.9,6.4c5,0,6.4-3.8,6.8-6.4H245z"/>
<path class="st5" d="M251.8,184.3c-1.5,0-2.7-0.7-2.7-0.8c-0.3-0.2-0.3-0.5-0.2-0.8c0.2-0.3,0.5-0.3,0.8-0.2c0,0,1,0.6,2.1,0.6
	c1.2,0,2.2-0.6,2.3-0.6c0.3-0.2,0.6-0.1,0.8,0.2c0.2,0.3,0.1,0.6-0.2,0.8C254.6,183.6,253.4,184.3,251.8,184.3z"/>
<path class="st1" d="M277.1,149.8c-0.2,0.5-0.7,0.8-1.4,1c0,1.3-0.1,2.8-0.2,4.3c-0.7,8.5-2.8,10-3.4,7.9c-0.3-1.4-0.3-9.4-0.1-12
	c-1.7-0.1-3.1-0.4-3.1-0.4l-2-8.3l-0.7,8.2c-2.9,1-9.9-0.6-9.9-0.6l-2.3-8.2l-1.5,7.9c-4.4,2.2-10,0.7-10,0.7l-1.3-8.4l-2.9,8.4
	c0,0-9.4,3.4-9.5,0c-0.1-2,1.4-7.6,2.6-11.8c1.4-4.7,4.4-8.7,8.6-10.9c11.7-6.3,24.1-2.9,28.4-0.4
	C277.4,132.6,277.1,149.8,277.1,149.8z"/>
<path class="st1" d="M234.1,132.6c0,0-7.8,9.2-10.4,25.8c-2.5,16.6-6.1,28.7,3.9,34.2c10.8,5.9,9.9-6.2,9.6-9.5
	c-0.1-3.3-9.3-12.3-3.3-37.6C236,137.3,234.1,132.6,234.1,132.6z"/>
<path class="st4" d="M232.2,166.8c0,0.1,0,0.8,0.1,1.8c0,0.6,0.1,1.4,0.1,2.3c0.3,5.6,1.5,15.2,4.6,18.6c1.3,1.4,3.7,2,6.5,2.2v-4.4
	c-3-1.5-5.3-3.8-7.1-6.6c-1.2-2.4-3-6.2-4-12.3L232.2,166.8z"/>
<path class="st8" d="M273.5,173.6c0.8,0,1.4-0.6,1.4-1.4c0-0.8-0.6-1.4-1.4-1.4c-0.8,0-1.4,0.6-1.4,1.4
	C272.1,173,272.8,173.6,273.5,173.6z"/>
<path class="st2" d="M302.9,276c-3.9,11.1-21.4,10.4-41.2,4.3h-0.1c-0.1,0-0.1,0-0.2-0.1l-2.7-0.8c-0.4-0.1-0.7-0.2-1.2-0.4
	c-2.1-0.7-4.3-1.5-6.5-2.3c-7.1-2.7-14.3-5.9-21.1-9.3v-0.1l2-5.2l0.7-1.8c0,0,36.9,4,55.5,0.1c0.3-0.1,0.6-0.1,0.9-0.2
	c-0.1-0.4-0.1-0.8-0.2-1.3c-9.9-33.5,0.9-39.8,4.5-44.6C293.4,214.2,310.3,254.9,302.9,276z"/>
<path class="st3" d="M296.9,265.6c-0.1,0-0.2,0.1-0.3,0.1c-0.3,0-0.5-0.2-0.7-0.4c-1.4-2.8-6.2-4.6-7.7-5c0.3-0.1,0.6-0.1,0.9-0.2
	c-0.1-0.4-0.1-0.8-0.2-1.3c1.9,0.6,6.7,2.5,8.4,5.8C297.4,264.9,297.3,265.4,296.9,265.6z"/>
<path class="st3" d="M245.2,264.2c-7.6,0-13.6-0.4-14.2-0.4c-0.4,0-0.7-0.4-0.7-0.8c0-0.4,0.4-0.7,0.8-0.7c0.3,0,27.9,2,38.9-2.4
	c0.4-0.2,0.8,0,1,0.4c0.2,0.4,0,0.8-0.4,1C264.6,263.6,254,264.2,245.2,264.2z"/>
<path class="st3" d="M258.6,279.2c6.3-1.8,12.1-3.5,15.4-4.5c4.6-1.5,8.4-6.1,10.2-10.1c0.2-0.4,0.6-0.6,1-0.4
	c0.4,0.2,0.6,0.6,0.4,1c-1.9,4.3-6,9.3-11.1,10.9c-2.4,0.7-6.1,1.9-10.3,3C262.4,279.8,260.4,279.8,258.6,279.2z"/>
<path class="st2" d="M275.6,273.9c-57,19.2-74.6,6.6-74.6,6.6c-3.9-34.7,10.3-65.9,10.3-65.9c4.2,6.9,8.9,18.9,8.9,18.9l1.3,26.6
	l-0.1,0.7v0.3l-0.2,1.8c0.1,0,0.2,0.1,0.4,0.1c17.2,3.7,48.8-0.4,48.8-0.4L275.6,273.9z"/>
<path class="st3" d="M221.6,263.1c-3,2.6-6,5.6-8.6,9c-0.2,0.3-0.7,0.4-1.2,0.1c-0.3-0.3-0.4-0.7-0.1-1c2.9-3.9,6.3-7.1,9.8-10
	l-0.2,1.8C221.3,263.1,221.4,263.1,221.6,263.1z"/>
<path class="st7" d="M270.4,262.6c0,0,6.3-14.4,15.9-13.1l2.9,10.4c-5.2,2.2-6,11.2-13.5,13.8L270.4,262.6z"/>
<path class="st7" d="M232.8,260c0,0-4-9.3-14.5-12.1c-10.5-2.7-17.2,2.2-17.8,4.1c-0.7,1.9,4,0.1,4,0.1s-3,0.8-4.8,3.7
	c-1.8,2.8,4.2-0.2,4.2-0.2s-4.3,1.9-4.8,3.7c-0.5,1.8,5.1-1.2,6.2-1.2c0,0-5,2-5,3.8c0,1.8,5.8-1.2,10.1-0.9c4.3,0.2,10.9,2,10.9,2
	c3.6,0.6,6.9,1.2,10,1.3L232.8,260z"/>
<path class="st3" d="M334,114.6c-3.9,0-7-3.1-7-7c0-3.9,3.1-7,7-7s7,3.1,7,7C341,111.4,337.9,114.6,334,114.6z M334,102.7
	c-2.6,0-4.8,2.2-4.8,4.8s2.2,4.8,4.8,4.8s4.8-2.2,4.8-4.8S336.7,102.7,334,102.7z"/>
<path class="st2" d="M395.5,102.6c-3.9,0-7-3.1-7-7c0-3.9,3.1-7,7-7c3.9,0,7,3.1,7,7C402.5,99.5,399.3,102.6,395.5,102.6z
	 M395.5,90.8c-2.6,0-4.8,2.2-4.8,4.8s2.2,4.8,4.8,4.8c2.6,0,4.8-2.2,4.8-4.8S398.2,90.8,395.5,90.8z"/>
<path class="st3" d="M404.2,125.5c-0.6,0-1.2-0.5-1.2-1.2v-4.8c0-0.6,0.5-1.2,1.2-1.2c0.6,0,1.2,0.5,1.2,1.2v4.8
	C405.3,125.1,404.8,125.5,404.2,125.5z"/>
<path class="st3" d="M404.2,134.1c-0.6,0-1.2-0.5-1.2-1.2v-4.8c0-0.6,0.5-1.2,1.2-1.2c0.6,0,1.2,0.5,1.2,1.2v4.8
	C405.3,133.5,404.8,134.1,404.2,134.1z"/>
<path class="st3" d="M411,127.4h-4.4c-0.6,0-1.2-0.5-1.2-1.2c0-0.6,0.5-1.2,1.2-1.2h4.4c0.6,0,1.2,0.5,1.2,1.2
	C412.1,126.8,411.6,127.4,411,127.4z"/>
<path class="st3" d="M401.8,127.4h-4.4c-0.6,0-1.2-0.5-1.2-1.2c0-0.6,0.5-1.2,1.2-1.2h4.4c0.6,0,1.2,0.5,1.2,1.2
	C402.8,126.8,402.3,127.4,401.8,127.4z"/>
<path class="st3" d="M366.9,96c-0.6,0-1.2-0.5-1.2-1.2V90c0-0.6,0.5-1.2,1.2-1.2c0.6,0,1.2,0.5,1.2,1.2v4.8
	C368.1,95.5,367.6,96,366.9,96z"/>
<path class="st3" d="M366.9,104.5c-0.6,0-1.2-0.5-1.2-1.2v-4.8c0-0.6,0.5-1.2,1.2-1.2c0.6,0,1.2,0.5,1.2,1.2v4.8
	C368.1,104.1,367.6,104.5,366.9,104.5z"/>
<path class="st3" d="M373.9,97.8h-4.4c-0.6,0-1.2-0.5-1.2-1.2c0-0.6,0.5-1.2,1.2-1.2h4.4c0.6,0,1.2,0.5,1.2,1.2
	C374.9,97.4,374.4,97.8,373.9,97.8z"/>
<path class="st3" d="M364.5,97.8h-4.4c-0.6,0-1.2-0.5-1.2-1.2c0-0.6,0.5-1.2,1.2-1.2h4.4c0.6,0,1.2,0.5,1.2,1.2
	C365.6,97.4,365.2,97.8,364.5,97.8z"/>
<path class="st3" d="M82.4,89.7c0-3.9,3.1-7,7-7s7,3.1,7,7c0,3.9-3.1,7-7,7S82.4,93.6,82.4,89.7z M84.6,89.7c0,2.6,2.2,4.8,4.8,4.8
	c2.6,0,4.8-2.2,4.8-4.8s-2.2-4.8-4.8-4.8C86.7,84.9,84.6,87,84.6,89.7z"/>
<path class="st2" d="M54.1,116.6c0-3.9,3.1-7,7-7s7,3.1,7,7s-3.1,7-7,7S54.1,120.4,54.1,116.6z M56.3,116.6c0,2.6,2.2,4.8,4.8,4.8
	c2.6,0,4.8-2.2,4.8-4.8c0-2.6-2.2-4.8-4.8-4.8C58.5,111.7,56.3,113.8,56.3,116.6z"/>
<path class="st3" d="M39.5,126.4c0.6,0,1.2-0.5,1.2-1.2v-4.8c0-0.6-0.5-1.2-1.2-1.2c-0.6,0-1.2,0.5-1.2,1.2v4.8
	C38.4,125.9,38.9,126.4,39.5,126.4z"/>
<path class="st3" d="M39.5,134.9c0.6,0,1.2-0.5,1.2-1.2v-4.8c0-0.6-0.5-1.2-1.2-1.2c-0.6,0-1.2,0.5-1.2,1.2v4.8
	C38.4,134.4,38.9,134.9,39.5,134.9z"/>
<path class="st3" d="M32.6,128.2H37c0.6,0,1.2-0.5,1.2-1.2c0-0.6-0.5-1.2-1.2-1.2h-4.4c-0.6,0-1.2,0.5-1.2,1.2
	C31.6,127.8,32,128.2,32.6,128.2z"/>
<path class="st3" d="M42,128.2h4.4c0.6,0,1.2-0.5,1.2-1.2c0-0.6-0.5-1.2-1.2-1.2H42c-0.6,0-1.2,0.5-1.2,1.2
	C40.8,127.8,41.3,128.2,42,128.2z"/>
<path class="st3" d="M64.9,89c0.6,0,1.2-0.5,1.2-1.2V83c0-0.6-0.5-1.2-1.2-1.2c-0.6,0-1.2,0.5-1.2,1.2v4.8
	C63.9,88.5,64.3,89,64.9,89z"/>
<path class="st3" d="M64.9,97.5c0.6,0,1.2-0.5,1.2-1.2v-4.8c0-0.6-0.5-1.2-1.2-1.2c-0.6,0-1.2,0.5-1.2,1.2v4.8
	C63.9,96.9,64.3,97.5,64.9,97.5z"/>
<path class="st3" d="M58.1,90.8h4.4c0.6,0,1.2-0.5,1.2-1.2c0-0.6-0.5-1.2-1.2-1.2h-4.4c-0.6,0-1.2,0.5-1.2,1.2
	C57,90.3,57.5,90.8,58.1,90.8z"/>
<path class="st3" d="M67.4,90.8h4.4c0.6,0,1.2-0.5,1.2-1.2c0-0.6-0.5-1.2-1.2-1.2h-4.4c-0.6,0-1.2,0.5-1.2,1.2
	C66.3,90.3,66.8,90.8,67.4,90.8z"/>
<path class="st0" d="M275.5,90.2c-0.1,0-0.2,0-0.4-0.1c-1.4-0.5-2.1-0.8-2.1-0.8c-0.4-0.1-0.6-0.6-0.5-0.9c0.1-0.4,0.6-0.6,0.9-0.5
	c0,0,0.8,0.3,2.2,0.8c0.4,0.2,0.6,0.6,0.4,1C276,90,275.8,90.1,275.5,90.2z"/>
<path class="st0" d="M315.5,132.3c0.5,1.5,1,2.9,1.5,4.4c0.1,0.3,0.4,0.6,0.8,0.5h0.1c0.4-0.1,0.6-0.5,0.5-0.9
	c-0.4-1.5-0.9-3-1.5-4.4c-0.1-0.4-0.6-0.6-1-0.4C315.6,131.4,315.4,131.9,315.5,132.3z"/>
<path class="st0" d="M318.2,141.1c0.3,1.5,0.7,3,0.9,4.5c0.1,0.4,0.4,0.6,0.8,0.6c0,0,0,0,0.1,0c0.4-0.1,0.7-0.5,0.6-0.9
	c-0.3-1.6-0.6-3-0.9-4.6c-0.1-0.4-0.5-0.6-0.9-0.5C318.3,140.3,318.1,140.7,318.2,141.1z"/>
<path class="st0" d="M321.4,164.7c0.4,0,0.7-0.3,0.7-0.7c0-1.6,0-3.1,0-4.7c0-0.4-0.4-0.7-0.8-0.7c-0.4,0-0.7,0.4-0.7,0.8
	c0,1.5,0.1,3,0,4.6C320.6,164.4,320.9,164.7,321.4,164.7C321.4,164.8,321.4,164.8,321.4,164.7z"/>
<path class="st0" d="M320.5,149.3c-0.4,0.1-0.7,0.4-0.6,0.8c0.1,0.7,0.2,1.5,0.2,2.1c0.1,0.8,0.2,1.7,0.2,2.4c0,0.4,0.4,0.7,0.8,0.7
	c0.4,0,0.7-0.4,0.7-0.8c-0.1-0.8-0.1-1.7-0.2-2.5c-0.1-0.7-0.2-1.5-0.2-2.2C321.3,149.5,320.9,149.2,320.5,149.3z"/>
<path class="st0" d="M313.7,128c0.1,0.3,0.4,0.5,0.8,0.4c0.1,0,0.2,0,0.2-0.1c0.4-0.2,0.5-0.6,0.4-1c-0.6-1.5-1.4-2.8-2.1-4.2
	c-0.2-0.4-0.6-0.5-1-0.3c-0.4,0.2-0.5,0.6-0.3,1C312.4,125.2,313,126.6,313.7,128z"/>
<path class="st0" d="M279.3,92.1c1.4,0.7,2.7,1.5,4.1,2.2c0.1,0.1,0.3,0.1,0.5,0.1c0.2,0,0.4-0.2,0.6-0.4c0.2-0.4,0.1-0.8-0.3-1
	c-1.4-0.8-2.7-1.6-4.1-2.3c-0.4-0.2-0.8,0-1,0.3C278.8,91.4,278.9,91.9,279.3,92.1z"/>
<path class="st0" d="M290.9,99.5c0.2,0.1,0.3,0.2,0.5,0.1c0.2,0,0.4-0.1,0.5-0.3c0.3-0.3,0.2-0.8-0.1-1c-1.3-0.9-2.5-1.9-3.8-2.7
	c-0.3-0.2-0.8-0.1-1,0.2c-0.2,0.3-0.1,0.8,0.2,1C288.5,97.7,289.8,98.5,290.9,99.5z"/>
<path class="st0" d="M304.1,112.4c0.2,0.2,0.4,0.3,0.7,0.3c0.1,0,0.3-0.1,0.4-0.2c0.3-0.3,0.4-0.7,0.1-1.2c-0.9-1.3-2-2.4-3-3.6
	c-0.3-0.3-0.8-0.3-1.2-0.1c-0.3,0.3-0.3,0.8-0.1,1.2C302.1,110,303.2,111.1,304.1,112.4z"/>
<path class="st0" d="M297.9,105.4c0.2,0.2,0.4,0.2,0.6,0.2c0.2,0,0.3-0.1,0.5-0.2c0.3-0.3,0.3-0.8,0-1.2c-1.2-1-2.3-2.2-3.5-3.1
	c-0.3-0.3-0.8-0.2-1.2,0.1c-0.3,0.3-0.2,0.8,0.1,1.2C295.7,103.3,296.9,104.4,297.9,105.4z"/>
<path class="st0" d="M309.4,119.8c0.2,0.3,0.4,0.4,0.7,0.4c0.1,0,0.2,0,0.3-0.1c0.4-0.2,0.5-0.7,0.2-1c-0.8-1.4-1.7-2.6-2.6-4
	c-0.2-0.3-0.7-0.4-1-0.2c-0.3,0.2-0.4,0.7-0.2,1C307.8,117.3,308.6,118.6,309.4,119.8z"/>
<path class="st2" d="M275.5,84.8l3.4-12.7l-41.9,0.4L275.5,84.8z"/>
<path class="st3" d="M236.8,72.5l36.6,15.4h0.1l1.6,2.6l0.4-5.8L236.8,72.5z"/>
<path class="st3" d="M275.1,90.6l-3.4-0.5l1.8-2.1L275.1,90.6z"/>
<path class="st2" d="M268.9,86l4.6,1.9l-9.4,10.7l-27.2-26.1L268.9,86z"/>
<path class="st10" d="M468.9,419.2v0.7c0,4.4-3.6,8-8,8H45.6c-4.4,0-8-3.6-8-8v-0.7c0-4.4,3.6-8,8-8h415.2
	C465.2,411.2,468.9,414.8,468.9,419.2z"/>
<path class="st3" d="M468.9,419.2v0.4H37.6v-0.4c0-4.4,3.6-8,8-8h415.2C465.2,411.2,468.9,414.8,468.9,419.2z"/>
<path class="st1" d="M316.7,386.1H186.4c-3.1,0-5.7-2.5-5.7-5.7v-68.3c0-3.1,2.5-5.7,5.7-5.7h130.3c3.1,0,5.7,2.5,5.7,5.7v68.3
	C322.4,383.5,319.9,386.1,316.7,386.1z"/>
<path class="st4" d="M262.5,386h-21.9V411h21.9V386z"/>
<path class="st1" d="M279.5,410.9h-56.6V409c0-3.9,3.1-6.9,6.9-6.9h42.7c3.9,0,6.9,3.1,6.9,6.9v1.9H279.5z"/>
<g>
	<g>
		<g>
			<path class="st3" d="M205.8,345.7c0,3,1.2,4.3,4.1,4.3c0.7,0,1.6-0.1,2.5-0.3c1-0.2,1.5,0.3,1.5,1.3v0.5c0,0.8-0.4,1.4-1.2,1.6
				c-1.3,0.3-2.5,0.5-3.6,0.5c-4.5,0-7.6-2.5-7.6-7.8c0-5.2,3.1-7.8,7.6-7.8c1.1,0,2.3,0.1,3.6,0.5c0.8,0.2,1.2,0.7,1.2,1.6v0.5
				c0,1-0.7,1.4-1.8,1.2c-0.8-0.1-1.6-0.2-2.3-0.2C206.9,341.4,205.8,342.7,205.8,345.7z"/>
			<path class="st3" d="M216.2,345.7c0-5,2.7-7.8,7.7-7.8s7.7,2.8,7.7,7.8c0,4.9-2.7,7.8-7.7,7.8S216.2,350.6,216.2,345.7z
				 M227.3,345.7c0-3-1.1-4.2-3.4-4.2s-3.4,1.3-3.4,4.2s1.1,4.2,3.4,4.2C226.2,349.9,227.3,348.6,227.3,345.7z"/>
			<path class="st3" d="M249.1,342.7v11c0,4.1-3.2,5.9-7.3,5.9c-1.3,0-2.7-0.2-4.1-0.5c-0.8-0.2-1.2-0.7-1.2-1.6v-0.6
				c0-1,0.6-1.4,1.6-1.2c1.2,0.3,2.3,0.4,3.3,0.4c2.1,0,3.5-0.7,3.5-2.4v-0.3c-0.7,0.1-1.5,0.1-2.1,0.1c-5.4,0-8.5-2-8.5-7.8
				s3.2-7.8,8.5-7.8C247.2,337.9,249.1,339.3,249.1,342.7z M244.9,349.7v-6.4c0-1.3-0.3-1.9-2.4-1.9c-2.8,0-4,1-4,4.2
				s1.2,4.2,4.1,4.2C243.1,349.9,243.9,349.8,244.9,349.7z"/>
			<path class="st3" d="M262.9,347.1l-6.5,0.7c0.5,1.7,2,2.3,4,2.3c1,0,2.2-0.2,3.5-0.5c1-0.2,1.6,0.2,1.6,1.2v0.5
				c0,0.8-0.4,1.4-1.2,1.6c-1.6,0.5-3.2,0.7-4.6,0.7c-4.6,0-7.7-2.5-7.7-7.8c0-5,2.6-7.8,7.8-7.8c4.3,0,6.9,2,6.9,5.9
				C266.6,345.9,265.7,346.8,262.9,347.1z M262.6,343.3c0-1.4-0.9-2.3-2.8-2.3c-2.1,0-3.3,1-3.5,3.6l5.3-0.5
				C262.4,344,262.6,343.8,262.6,343.3z"/>
			<path class="st3" d="M280,347.1l-6.5,0.7c0.5,1.7,2,2.3,4,2.3c1,0,2.2-0.2,3.5-0.5c1-0.2,1.6,0.2,1.6,1.2v0.5
				c0,0.8-0.4,1.4-1.2,1.6c-1.7,0.5-3.2,0.7-4.6,0.7c-4.6,0-7.7-2.5-7.7-7.8c0-5,2.6-7.8,7.8-7.8c4.3,0,6.9,2,6.9,5.9
				C283.6,345.9,282.8,346.8,280,347.1z M279.7,343.3c0-1.4-0.9-2.3-2.8-2.3c-2.1,0-3.3,1-3.5,3.6l5.3-0.5
				C279.4,344,279.7,343.8,279.7,343.3z"/>
			<path class="st3" d="M299.7,353.2h-1.4c-0.9,0-1.6-0.3-2-0.7l-5.7-6.6v5.9c0,0.9-0.5,1.4-1.4,1.4h-1.4c-0.9,0-1.4-0.5-1.4-1.4
				v-18.6c0-0.9,0.5-1.4,1.4-1.4h1.4c0.9,0,1.4,0.5,1.4,1.4v11.3l5.7-5.7c0.4-0.5,1-0.7,2-0.7h1.2c1.3,0,1.9,0.7,1.1,1.5l-5.6,5.5
				l5.8,6.5C301.5,352.5,300.9,353.2,299.7,353.2z"/>
		</g>
	</g>
	<path class="st3" d="M282,356.4c-0.2-0.2-0.5-0.3-0.7-0.1c-3.6,1.9-8.4,3-13.4,3s-9.8-1-13.4-3c-0.2-0.1-0.5-0.1-0.7,0.1
		c-0.2,0.2-0.2,0.5-0.1,0.7c1.7,3.7,7.5,6.3,14.2,6.3s12.5-2.6,14.2-6.3C282.3,356.9,282.2,356.6,282,356.4z"/>
</g>
</svg>
