<?xml version="1.0" encoding="utf-8"?>
<!-- Generator: Adobe Illustrator 21.0.0, SVG Export Plug-In . SVG Version: 6.00 Build 0)  -->
<svg version="1.1" id="Layer_1" xmlns="http://www.w3.org/2000/svg" xmlns:xlink="http://www.w3.org/1999/xlink" x="0px" y="0px"
	 viewBox="0 0 50 45" style="enable-background:new 0 0 50 45;" xml:space="preserve">
<style type="text/css">
	.st0{clip-path:url(#SVGID_2_);}
	.st1{fill:#06C4F9;}
</style>
<g>
	<defs>
		<rect id="SVGID_1_" width="50" height="44.4"/>
	</defs>
	<clipPath id="SVGID_2_">
		<use xlink:href="#SVGID_1_"  style="overflow:visible;"/>
	</clipPath>
	<g class="st0">
		<path class="st1" d="M21.3,7.5l-1.8-2.8C7,13.2,0,23.6,0,32.2c0,8.3,6,12.2,11.1,12.2C17.5,44.4,22,38.8,22,33
			c0-4.9-3.1-9.1-7.2-10.6c-1.2-0.4-2.3-0.8-2.3-2.8C12.6,17,14.4,13.1,21.3,7.5z M49,7.5l-1.8-2.8c-12.4,8.6-19.5,19-19.5,27.5
			c0,8.3,6.1,12.2,11.2,12.2C45.4,44.4,50,38.8,50,33c0-4.9-3.1-9.1-7.4-10.6c-1.2-0.4-2.2-0.8-2.2-2.8C40.4,17,42.3,13.1,49,7.5z"
			/>
	</g>
</g>
</svg>
