<?xml version="1.0" encoding="utf-8"?>
<!-- Generator: Adobe Illustrator 21.0.0, SVG Export Plug-In . SVG Version: 6.00 Build 0)  -->
<svg version="1.1" id="Layer_1" xmlns="http://www.w3.org/2000/svg" xmlns:xlink="http://www.w3.org/1999/xlink" x="0px" y="0px"
	 viewBox="0 0 500 500" style="enable-background:new 0 0 500 500;" xml:space="preserve">
<style type="text/css">
	.st0{fill:#06C4F9;}
</style>
<path class="st0" d="M219,30.4l-61.6,107l61.6,107c7.1,12.5,1.8,21.8-12.7,21.8h-24.2c-10.1,0-16.8-4.2-21.6-12.9l-47.2-86L66,253.4
	c-4.8,8.7-11.5,12.9-21.6,12.9H20.1c-14.5,0-19.6-9.3-12.5-21.8l61.6-107L7.6,30.4C0.5,17.9,5.6,8.6,20.1,8.6h24.4
	c10.1,0,16.8,4.2,21.6,12.9l47.4,86l47.2-86c4.8-8.7,11.5-12.9,21.6-12.9h24.2C220.8,8.6,226.2,17.9,219,30.4z"/>
<path class="st0" d="M492.5,30.4l-61.6,107l61.6,107c7.1,12.5,1.8,21.8-12.7,21.8h-24.2c-10.1,0-16.8-4.2-21.6-12.9l-47.2-86
	l-47.4,86c-4.8,8.7-11.5,12.9-21.6,12.9h-24.4c-14.5,0-19.6-9.3-12.5-21.8l61.6-107L281,30.4c-7.1-12.5-2-21.8,12.5-21.8h24.4
	c10.1,0,16.8,4.2,21.6,12.9l47.4,86l47.2-86c4.8-8.7,11.5-12.9,21.6-12.9h24.2C494.2,8.6,499.6,17.9,492.5,30.4z"/>
<path class="st0" d="M4,417.7c2.9,3.5,7.9,4.4,11.9,2.1c64-33.6,147.2-52.4,234.6-52.4s171.6,18.2,234.6,52.4c4,1.9,8.8,1,11.9-2.1
	c3.3-3.5,4-8.7,1.7-12.9c-29.4-65-131.4-110.1-249.2-110.1S29.6,339.8,0.2,404.8C-0.5,409.5,0.9,414.2,4,417.7z"/>
<path class="st0" d="M140,491.4L140,491.4c-21.7,0-39.5-17.8-39.5-39.5v-75.5c0-21.7,17.8-39.5,39.5-39.5l0,0
	c21.7,0,39.5,17.8,39.5,39.5v75.5C179.5,473.6,161.7,491.4,140,491.4z"/>
</svg>
