<?xml version="1.0" encoding="utf-8"?>
<!-- Generator: Adobe Illustrator 21.0.0, SVG Export Plug-In . SVG Version: 6.00 Build 0)  -->
<svg version="1.1" id="Layer_1" xmlns="http://www.w3.org/2000/svg" xmlns:xlink="http://www.w3.org/1999/xlink" x="0px" y="0px"
	 viewBox="0 0 500 500" style="enable-background:new 0 0 500 500;" xml:space="preserve">
<style type="text/css">
	.st0{fill:#212529;}
	.st1{fill:#06C4F9;}
</style>
<path class="st0" d="M431.5,500h-363C30.7,500,0,469.3,0,431.5v-363C0,30.7,30.7,0,68.5,0h363C469.3,0,500,30.7,500,68.5v363
	C500,469.3,469.3,500,431.5,500z"/>
<path class="st1" d="M78.2,250.1c0,27.3,10.9,38.7,36.7,38.7c6.3,0,14.5-0.5,23-2.4c9-1.4,13.9,2.5,13.9,11.4v4.7
	c0,7.6-3.4,12.5-10.9,14.3c-11.4,2.9-22.4,4.2-32.6,4.2C67.4,321,39,298,39,250.3s28.6-70.7,69.4-70.7c9.9,0,21,1.1,32.6,4.2
	c7.2,1.8,10.9,6.7,10.9,14.3v4.7c0,9-6.1,12.5-16.6,10.9c-7.6-1.1-14.5-1.8-20.6-1.8C89.1,211,78.2,222.8,78.2,250.1z"/>
<path class="st1" d="M307.4,222.8v99.8c0,36.7-28.8,53.5-66,53.5c-11.9,0-24.4-1.8-37.6-4.9c-7.2-1.8-10.9-6.7-10.9-14.3v-5.2
	c0-9,5.2-13,14.3-11c10.9,2.4,20.6,3.8,30,3.8c18.6,0,31.6-6.1,31.6-21.9v-2.9c-6.7,0.5-13.4,0.9-19.5,0.9
	c-48.6,0-77.4-17.7-77.4-70.7s28.8-70.7,77.4-70.7C290,179.4,307.4,191.9,307.4,222.8z M268.7,286.6v-57.9
	c0-11.4-2.4-16.8-22.1-16.8c-25.3,0-36,9.6-36,38.3s10.9,38.2,36.7,38.2C253.3,288.2,260.5,287.5,268.7,286.6z"/>
<path class="st1" d="M448.1,318.1h-12.3c-8.1,0-14.3-2.4-18.1-6.7l-51.5-59.9v53.9c0,8.1-4.7,12.8-12.8,12.8h-13
	c-8.1,0-12.8-4.7-12.8-12.8V136.7c0-8.1,4.7-12.8,12.8-12.8h13c8.1,0,12.8,4.7,12.8,12.8v102.7l51.5-51.5c3.4-4.3,9.6-6.1,17.7-6.1
	h11c11.9,0,16.8,6.3,10.1,13.7l-51,49.7l52.6,59.3C464.5,311.9,459.7,318.1,448.1,318.1z"/>
<path class="st1" d="M377.6,394.6c-1.8-1.8-4.2-2.4-6.1-1.1c-33.1,17.5-76.1,27.1-121.5,27.1c-45.4,0-88.8-9.6-121.5-27.1
	c-2-1.1-4.7-0.5-6.1,1.1c-1.8,1.8-2,4.3-0.9,6.7c15.2,33.5,68,57,128.9,57s113.7-23.3,128.9-57C379.8,398.9,379.4,396.4,377.6,394.6
	z"/>
</svg>
