<?xml version="1.0" encoding="utf-8"?>
<!-- Generator: Adobe Illustrator 21.0.0, SVG Export Plug-In . SVG Version: 6.00 Build 0)  -->
<svg version="1.1" id="Layer_1" xmlns="http://www.w3.org/2000/svg" xmlns:xlink="http://www.w3.org/1999/xlink" x="0px" y="0px"
	 viewBox="0 0 500 500" style="enable-background:new 0 0 500 500;" xml:space="preserve">
<style type="text/css">
	.st0{fill:none;}
	.st1{fill:#06C4F9;}
</style>
<rect x="33.3" y="329.2" class="st0" width="16.7" height="16.7"/>
<rect x="75" y="170.8" class="st0" width="25" height="16.7"/>
<rect x="41.7" y="170.8" class="st0" width="16.7" height="16.7"/>
<rect x="16.7" y="204.2" class="st0" width="25" height="16.7"/>
<rect x="58.3" y="204.2" class="st0" width="25" height="16.7"/>
<rect x="441.7" y="170.8" class="st0" width="16.7" height="16.7"/>
<rect x="458.3" y="204.2" class="st0" width="25" height="16.7"/>
<rect x="83.3" y="87.5" class="st0" width="16.7" height="16.7"/>
<rect x="408.3" y="87.5" class="st0" width="25" height="16.7"/>
<rect x="66.7" y="329.2" class="st0" width="41.7" height="16.7"/>
<rect x="383.3" y="429.2" class="st0" width="16.7" height="16.7"/>
<rect x="425" y="237.5" class="st0" width="41.7" height="16.7"/>
<rect x="416.7" y="204.2" class="st0" width="25" height="16.7"/>
<rect x="58.3" y="237.5" class="st0" width="16.7" height="16.7"/>
<rect x="408.3" y="170.8" class="st0" width="16.7" height="16.7"/>
<rect x="66.7" y="362.5" class="st0" width="25" height="16.7"/>
<rect x="108.3" y="362.5" class="st0" width="16.7" height="16.7"/>
<path class="st1" d="M453.1,395.8c28.8-40,46-88.8,46.9-141.7h-16.6v-16.7h16.4c-0.8-17.2-3.4-33.9-7.6-50H475v-16.7h12.2
	c-8-24.1-19.6-46.5-34.1-66.7H450V100c-7.8-10.4-16.4-20.1-25.7-29.2h-32.7V54.2h13.7C362.7,20.3,308.7,0,250,0h0
	C189.9,0,134.8,21.2,91.7,56.5v14.3h-16C70.2,76.1,65,81.7,60,87.5h6.6v16.7H50V100c-16,21.2-28.6,45.1-37.2,70.8H25v16.7H8.3v-1.7
	c-4.4,16.6-7.1,33.9-8,51.7h41.4v16.7H0.1c0.4,26.2,4.9,51.4,12.8,75h3.9v10.7c3,7.7,6.3,15.3,10,22.6H50v16.7H35.9
	c4.4,7.2,9.1,14.2,14.1,20.8v-4.2h16.7v16.7H60C105.9,466.1,174,500,250,500h0c64,0,122.4-24.1,166.7-63.7v-7.2h7.7
	c5.5-5.3,10.7-10.9,15.6-16.7h-6.6v-16.7H453.1z M483.3,204.2v16.7h-25v-16.7H483.3z M441.7,170.8h16.7v16.7h-16.7V170.8z
	 M408.3,87.5h25v16.7h-25V87.5z M83.3,87.5H100v16.7H83.3V87.5z M108.3,329.2v16.7H66.7v-16.7H108.3z M75,170.8h25v16.7H75V170.8z
	 M83.3,204.2v16.7h-25v-16.7H83.3z M41.7,170.8h16.7v16.7H41.7V170.8z M16.7,220.8v-16.7h25v16.7H16.7z M50,345.8H33.3v-16.7H50
	V345.8z M58.3,254.2v-16.7H75v16.7H58.3z M91.7,379.2h-25v-16.7h25V379.2z M125,379.2h-16.7v-16.7H125V379.2z M333.3,170.3
	c0,11.2-6.7,16-18.3,13.6c-71.9-14.7-97,8.1-97,66.1c0,58,25,80.7,97,66.1c11.6-2.4,18.3,2.4,18.3,13.6v11.6
	c0,9.3-4.8,15.7-15.4,18.3c-92,22.3-151.3-21-151.3-109.6c0-89,60-132.3,153-109c9.3,2.2,13.6,8.5,13.6,17.8V170.3z M400,445.8
	h-16.7v-16.7H400V445.8z M408.3,187.5v-16.7H425v16.7H408.3z M416.7,220.8v-16.7h25v16.7H416.7z M425,254.2v-16.7h41.7v16.7H425z"/>
</svg>
