<svg id="Layer_1" data-name="Layer 1" xmlns="http://www.w3.org/2000/svg" viewBox="0 0 500.08 158.8"><defs><style>.cls-1{fill:#06c4f9;}</style></defs><title>logo</title><path class="cls-1" d="M21.7,70.5c0,15.1,6,21.4,20.3,21.4a55.22,55.22,0,0,0,12.7-1.3c5-.9,7.7,1.3,7.7,6.3v2.6c0,4.2-2,7-6,7.9a73.87,73.87,0,0,1-17.9,2.3C15.7,109.7,0,97,0,70.6S15.7,31.5,38.5,31.5a68.71,68.71,0,0,1,17.9,2.3c4,1,6,3.7,6,7.9v2.6c0,5-3.4,7-9.2,6a83.87,83.87,0,0,0-11.4-1C27.7,48.9,21.7,55.3,21.7,70.5Z" transform="translate(0 -0.6)"/><path class="cls-1" d="M74.1,70.5c0-24.9,13.7-39.1,38.8-39.1s38.8,14.2,38.8,39.1-13.7,39.1-38.8,39.1S74.1,95.3,74.1,70.5Zm55.9,0c0-15-5.6-21.2-17.2-21.2S95.6,55.6,95.6,70.5s5.6,21.1,17.2,21.1S130,85,130,70.5Z" transform="translate(0 -0.6)"/><path class="cls-1" d="M239.3,55.3v55.2c0,20.3-15.9,29.5-36.5,29.5a91.39,91.39,0,0,1-20.8-2.7c-4-1-6-3.7-6-7.9v-2.9c0-5,2.9-7.2,7.9-6.1a78.55,78.55,0,0,0,16.6,2.1c10.3,0,17.5-3.4,17.5-12.1v-1.6c-3.7.2-7.4.5-10.7.5-26.9,0-42.8-9.8-42.8-39.1s15.9-39.1,42.8-39.1C229.6,31.3,239.3,38.3,239.3,55.3ZM217.8,90.6v-32c0-6.3-1.3-9.3-12.2-9.3-14,0-19.9,5.2-19.9,21.2s6,21.1,20.3,21.1A112.57,112.57,0,0,0,217.8,90.6Z" transform="translate(0 -0.6)"/><path class="cls-1" d="M308.6,77.3l-32.5,3.4c2.7,8.5,9.8,11.6,19.9,11.6a81.74,81.74,0,0,0,17.5-2.4c5-1.1,8.1,1,8.1,6v2.3c0,4.2-2,6.8-6,7.9a87,87,0,0,1-23.3,3.4c-23.2,0-38.8-12.7-38.8-39.1,0-24.9,13.2-39.1,38.9-39.1,21.6,0,34.4,10.1,34.4,29.3C326.9,71.3,322.4,75.8,308.6,77.3Zm-1.7-18.8c0-7.2-4.5-11.4-14.3-11.4-10.6,0-16.4,4.8-17.5,17.9l26.5-2.7C306,62.1,306.9,61.2,306.9,58.5Z" transform="translate(0 -0.6)"/><path class="cls-1" d="M394.2,77.3l-32.5,3.4c2.7,8.5,9.8,11.6,19.9,11.6a81.74,81.74,0,0,0,17.5-2.4c5-1.1,8.1,1,8.1,6v2.3c0,4.2-2,6.8-6,7.9a88.09,88.09,0,0,1-23.3,3.4c-23.2,0-38.8-12.7-38.8-39.1,0-24.9,13.2-39.1,38.9-39.1,21.6,0,34.4,10.1,34.4,29.3C412.5,71.3,408,75.8,394.2,77.3Zm-1.7-18.8c0-7.2-4.5-11.4-14.3-11.4-10.6,0-16.4,4.8-17.5,17.9l26.5-2.7C391.5,62.1,392.5,61.2,392.5,58.5Z" transform="translate(0 -0.6)"/><path class="cls-1" d="M492.8,108.1H486c-4.5,0-7.9-1.3-10-3.7L447.6,71.3v29.8c0,4.5-2.6,7.1-7.1,7.1h-7.2c-4.5,0-7.1-2.6-7.1-7.1V7.7c0-4.5,2.6-7.1,7.1-7.1h7.2c4.5,0,7.1,2.6,7.1,7.1V64.5l28.6-28.4c2-2.4,5.2-3.4,9.8-3.4h6.1c6.6,0,9.3,3.5,5.6,7.6L469.5,67.9l29.1,32.8C502,104.7,499.3,108.1,492.8,108.1Z" transform="translate(0 -0.6)"/><path class="cls-1" d="M404.4,124.2a2.66,2.66,0,0,0-3.4-.6c-18.3,9.6-42.1,15-67.1,15s-49.1-5.2-67.1-15a3,3,0,0,0-3.4.6,3.16,3.16,0,0,0-.5,3.7c8.4,18.6,37.6,31.5,71.3,31.5s62.9-12.9,71.3-31.5A4.47,4.47,0,0,0,404.4,124.2Z" transform="translate(0 -0.6)"/></svg>