<?xml version="1.0" encoding="utf-8"?>
<!-- Generator: Adobe Illustrator 21.0.0, SVG Export Plug-In . SVG Version: 6.00 Build 0)  -->
<svg version="1.1" id="Layer_1" xmlns="http://www.w3.org/2000/svg" xmlns:xlink="http://www.w3.org/1999/xlink" x="0px" y="0px"
	 viewBox="0 0 500 500" style="enable-background:new 0 0 500 500;" xml:space="preserve">
<style type="text/css">
	.st0{fill:#06C4F9;}
	.st1{fill:#212529;}
	.st2{opacity:0.7;}
	.st3{fill:#FFFFFF;}
</style>
<path class="st0" d="M218,4.2c-41.5,0-75.2,33.7-75.2,75.2c0,41.5,33.7,75.2,75.2,75.2c41.5,0,75.2-33.7,75.2-75.2
	C293.2,38,259.5,4.2,218,4.2z"/>
<path class="st1" d="M187.9,413.6h8.6l-29-168l-49.1-5.6l1.6-97.3l-106-20.1L4.3,386.7h134.4L187.9,413.6z"/>
<path class="st1" d="M180.4,442.9l-49.2-26.9H3.2L0,500h313.3l-37.2-57.1H180.4z"/>
<path class="st1" d="M417.4,350.4l-9.7,65.9l-29-4.3l12.1-82.5l109.2-44v-97.3L462.1,62h-80.1L349,162.5h-42.8v105.4l-50.1,29.3
	v49.4l-28.7,67H292l56.3,86.4H500V317.1L417.4,350.4z"/>
<g class="st2">
	<path class="st3" d="M260.4,103.3c-0.5-0.6-1.4-0.8-2-0.4c-11,5.8-25.3,9-40.4,9c-15.1,0-29.6-3.1-40.4-9c-0.7-0.3-1.5-0.2-2,0.4
		c-0.6,0.6-0.7,1.5-0.3,2.2c5.1,11.2,22.6,19,42.9,19s37.9-7.8,42.9-19C261.2,104.7,260.9,103.9,260.4,103.3z"/>
	<g>
		<g>
			<path class="st3" d="M275.7,51.9c-0.6-1.1-2.8-1.8-6.1-2.3c-2.7-0.4-6.3-0.7-10.4-0.9c-12.7-0.6-29.9,0-35.9,3.2h-0.1
				c-1.6,0.9-3.4,1.5-5.2,2c-1.8-0.4-3.6-1.1-5.3-2c-5.9-3.3-23.2-3.8-36-3.2c-4.1,0.2-7.7,0.5-10.4,0.9c-3.3,0.5-5.5,1.2-6.1,2.3
				c-0.2,0.4-0.3,0.8-0.3,1.2l0.3,6.7c0.1,2.4,1.5,2.6,3.4,2.9c0.9,0.1,2.2,0.3,2.4,2.7c0.1,1.2,0.1,2.6,0,4.3
				c-0.1,1.7-0.1,3.8-0.3,6.2c0,0.4,0,0.8,0,1.3c-0.1,4.9,2.4,9.5,6.6,12.1c3.8,2.5,8.9,3.7,14.3,4c1.1,0.1,2.3,0.1,3.5,0.1
				c7.5-0.1,13.3-2.2,17.8-6c4.5-3.8,7.7-8.7,10-14.8v0c2.5,6,5.7,11.1,10.1,14.8s10.1,5.9,17.6,6c1.2,0,2.4,0,3.5-0.1
				c5.4-0.3,10.5-1.6,14.3-4c4.2-2.6,6.8-7.2,6.7-12.1c0-0.4,0-0.9,0-1.3c-0.1-2.5-0.3-4.5-0.3-6.2c0-1.7,0-3.1,0-4.3
				c0.2-2.4,1.5-2.6,2.4-2.7c1.9-0.3,3.3-0.4,3.4-2.9l0.3-6.7C276,52.6,275.9,52.2,275.7,51.9z M190.3,84.2
				c-7.7,0.1-14.3-2.5-14.4-9.8l-0.2-14.6c0-0.9,33-7.1,32.8,7C206,76.8,201.1,84,190.3,84.2z M245.8,84.1
				c-10.8-0.1-15.7-7.4-18.2-17.4c-0.2-14,32.2-8,32.8-7.1l-0.2,14.6C260.1,81.6,253.4,84.2,245.8,84.1z"/>
		</g>
	</g>
</g>
</svg>
