<?xml version="1.0" encoding="utf-8"?>
<!-- Generator: Adobe Illustrator 21.0.0, SVG Export Plug-In . SVG Version: 6.00 Build 0)  -->
<svg version="1.1" id="Layer_1" xmlns="http://www.w3.org/2000/svg" xmlns:xlink="http://www.w3.org/1999/xlink" x="0px" y="0px"
	 viewBox="0 0 500 500" style="enable-background:new 0 0 500 500;" xml:space="preserve">
<style type="text/css">
	.st0{fill:none;}
	.st1{fill:url(#SVGID_1_);}
</style>
<rect x="33.3" y="329.2" class="st0" width="16.7" height="16.7"/>
<rect x="75" y="170.8" class="st0" width="25" height="16.7"/>
<rect x="41.7" y="170.8" class="st0" width="16.7" height="16.7"/>
<rect x="16.7" y="204.2" class="st0" width="25" height="16.7"/>
<rect x="58.3" y="204.2" class="st0" width="25" height="16.7"/>
<rect x="441.7" y="170.8" class="st0" width="16.7" height="16.7"/>
<rect x="458.3" y="204.2" class="st0" width="25" height="16.7"/>
<rect x="83.3" y="87.5" class="st0" width="16.7" height="16.7"/>
<rect x="408.3" y="87.5" class="st0" width="25" height="16.7"/>
<rect x="66.7" y="329.2" class="st0" width="41.7" height="16.7"/>
<rect x="383.3" y="429.2" class="st0" width="16.7" height="16.7"/>
<rect x="425" y="237.5" class="st0" width="41.7" height="16.7"/>
<rect x="416.7" y="204.2" class="st0" width="25" height="16.7"/>
<rect x="58.3" y="237.5" class="st0" width="16.7" height="16.7"/>
<rect x="408.3" y="170.8" class="st0" width="16.7" height="16.7"/>
<rect x="66.7" y="362.5" class="st0" width="25" height="16.7"/>
<rect x="108.3" y="362.5" class="st0" width="16.7" height="16.7"/>
<linearGradient id="SVGID_1_" gradientUnits="userSpaceOnUse" x1="250" y1="500" x2="250" y2="1.818989e-12">
	<stop  offset="0" style="stop-color:#06C4F9"/>
	<stop  offset="1" style="stop-color:#06B0F9"/>
</linearGradient>
<path class="st1" d="M426.8,73.2C378.1,24.4,319.1,0,250,0S121.9,24.4,73.1,73.2C24.4,121.9,0,180.9,0,250s24.4,128.1,73.1,176.8
	C121.9,475.6,180.9,500,250,500s128.1-24.4,176.8-73.2C475.6,378.1,500,319.1,500,250S475.6,121.9,426.8,73.2z M250,398.3
	c-41.1,0-76.2-14.5-105.2-43.6c-28.9-28.9-43.4-63.8-43.6-104.7h297.1c-0.1,40.9-14.5,75.8-43.3,104.7
	C326.1,383.8,291.1,398.3,250,398.3z"/>
</svg>
