<?xml version="1.0" encoding="utf-8"?>
<!-- Generator: Adobe Illustrator 21.0.0, SVG Export Plug-In . SVG Version: 6.00 Build 0)  -->
<svg version="1.1" id="Layer_1" xmlns="http://www.w3.org/2000/svg" xmlns:xlink="http://www.w3.org/1999/xlink" x="0px" y="0px"
	 viewBox="0 0 500 133.6" style="enable-background:new 0 0 500 133.6;" xml:space="preserve">
<style type="text/css">
	.st0{fill:#06C4F9;}
	.st1{fill:#38D0FA;}
</style>
<g>
	<path class="st0" d="M67,34.9C67,34.9,67.1,34.9,67,34.9c1.6,1.6,2.4,3.5,2.4,5.7c0,2.2-0.8,4-2.3,5.6c-1.6,1.6-3.4,2.3-5.6,2.3
		c-2.2,0-4.1-0.8-5.6-2.4h-0.1c-4.5-4.5-10-6.8-16.5-6.8s-12,2.3-16.6,6.8s-6.9,10.1-6.9,16.5s2.3,12,6.9,16.6
		c4.6,4.6,10.1,6.9,16.6,6.9c6.4,0,11.9-2.3,16.5-6.8c0.1-0.1,0.1-0.1,0.2-0.2c1.5-1.5,3.4-2.3,5.6-2.3c2.2,0,4.1,0.8,5.7,2.3
		c1.6,1.6,2.4,3.4,2.4,5.6c0,2.2-0.8,4.1-2.4,5.7c-0.1,0.1-0.1,0.1-0.2,0.2c-7.6,7.6-16.9,11.4-27.8,11.4s-20.2-3.8-27.8-11.5
		C3.8,82.9,0,73.6,0,62.7s3.8-20.2,11.5-27.8c7.7-7.7,17-11.5,27.8-11.5S59.5,27.2,67,34.9L67,34.9z"/>
	<path class="st1" d="M237.9,94.5c-6.7,5-14.5,7.6-23.3,7.6c-10.9,0-20.2-3.8-27.8-11.5c-7.7-7.7-11.5-17-11.5-27.8
		s3.8-20.2,11.5-27.8c7.7-7.7,17-11.5,27.8-11.5c10.9,0,20.2,3.8,27.8,11.5c7.7,7.7,11.5,16.9,11.5,27.8h0.1V94c0,0.4,0,0.8-0.1,1.3
		c-0.3,10.5-4.1,19.4-11.5,26.8c-7.7,7.7-17,11.5-27.8,11.5h-0.3c-2.2,0-4.1-0.8-5.7-2.4c-1.6-1.6-2.4-3.5-2.4-5.7s0.8-4.1,2.4-5.7
		c1.6-1.6,3.5-2.4,5.7-2.4c0.4,0,0.7,0,1.1,0.1c6.1-0.2,11.4-2.5,15.8-6.9C235.6,106.2,237.8,100.8,237.9,94.5z M214.5,39.3
		c-6.5,0-12,2.3-16.6,6.8c-4.6,4.5-6.9,10.1-6.9,16.5s2.3,12,6.9,16.6c4.6,4.6,10.1,6.9,16.6,6.9c6.5,0,12-2.3,16.5-6.9
		c4.5-4.6,6.8-10.1,6.8-16.6s-2.3-12-6.8-16.5C226.5,41.6,221,39.3,214.5,39.3z"/>
	<path class="st1" d="M318.9,41.3c-2.9-1.3-6.1-2-9.5-2c-6.5,0-12,2.3-16.6,6.8c-4.6,4.5-6.9,10.1-6.9,16.5s2.3,12,6.9,16.6
		c4.6,4.6,10.1,6.9,16.6,6.9c6.4,0,11.9-2.3,16.5-6.8c0.1-0.1,0.1-0.1,0.2-0.2c1.5-1.5,3.4-2.3,5.6-2.3c2.2,0,4.1,0.8,5.7,2.3
		c1.6,1.6,2.4,3.4,2.4,5.6c0,2.2-0.8,4.1-2.4,5.7c-0.1,0.1-0.1,0.1-0.2,0.2c-7.6,7.6-16.9,11.4-27.8,11.4
		c-10.9,0-20.2-3.8-27.8-11.5c-7.7-7.7-11.5-17-11.5-27.8s3.8-20.2,11.5-27.8c7.7-7.7,17-11.5,27.8-11.5c10.9,0,20.1,3.8,27.8,11.4
		l-0.1,0.1c0,0.1,0,0.1,0.1,0.1c1.5,1.5,2.3,3.4,2.3,5.6c0,2.2-0.8,4-2.3,5.5l-22.6,22.4c-1.6,1.5-3.5,2.3-5.7,2.3
		c-2.3,0-4.2-0.8-5.8-2.3c-1.5-1.6-2.3-3.5-2.3-5.8c0-2.2,0.8-4.1,2.3-5.7L318.9,41.3z"/>
	<path class="st1" d="M399.3,41.3c-2.9-1.3-6.1-2-9.5-2c-6.5,0-12,2.3-16.6,6.8c-4.6,4.5-6.9,10.1-6.9,16.5s2.3,12,6.9,16.6
		c4.6,4.6,10.1,6.9,16.6,6.9c6.4,0,11.9-2.3,16.5-6.8c0.1-0.1,0.1-0.1,0.2-0.2c1.5-1.5,3.4-2.3,5.6-2.3c2.2,0,4.1,0.8,5.7,2.3
		c1.6,1.6,2.4,3.4,2.4,5.6c0,2.2-0.8,4.1-2.4,5.7c-0.1,0.1-0.1,0.1-0.2,0.2c-7.6,7.6-16.9,11.4-27.8,11.4
		c-10.9,0-20.2-3.8-27.8-11.5c-7.7-7.7-11.5-17-11.5-27.8s3.8-20.2,11.5-27.8c7.7-7.7,17-11.5,27.8-11.5c10.9,0,20.1,3.8,27.8,11.4
		l-0.1,0.1c0,0.1,0,0.1,0.1,0.1c1.5,1.5,2.3,3.4,2.3,5.6c0,2.2-0.8,4-2.3,5.5l-22.6,22.4c-1.6,1.5-3.5,2.3-5.7,2.3
		c-2.3,0-4.2-0.8-5.8-2.3c-1.5-1.6-2.3-3.5-2.3-5.8c0-2.2,0.8-4.1,2.3-5.7L399.3,41.3z"/>
	<path class="st1" d="M453,73.1V94c0,2.2-0.8,4.1-2.4,5.7c-1.6,1.6-3.5,2.4-5.7,2.4c-2.2,0-4.1-0.8-5.7-2.4
		c-1.6-1.6-2.4-3.5-2.4-5.7V8c0-2.2,0.8-4.1,2.4-5.7c1.6-1.6,3.5-2.4,5.7-2.4c2.2,0,4.1,0.8,5.7,2.4c1.6,1.6,2.4,3.5,2.4,5.7v44.2
		l34.2-27.3c1.4-1.2,3.1-1.7,5-1.7c2.2,0,4.1,0.8,5.6,2.3c1.5,1.6,2.3,3.4,2.3,5.6c0,2.2-0.8,4.1-2.3,5.6c-0.5,0.5-1,0.9-1.5,1.2
		l-30.8,24.6l31.9,25.5l-0.2,0.2c0.2,0.2,0.4,0.3,0.6,0.5c1.5,1.6,2.3,3.4,2.3,5.6c0,2.2-0.8,4.1-2.3,5.6c-1.5,1.5-3.4,2.3-5.6,2.3
		c-1.8,0-3.4-0.6-4.8-1.7l-0.1,0.1L453,73.1z"/>
	<path class="st0" d="M147.6,34.9c-7.7-7.7-17-11.5-27.8-11.5s-20.2,3.8-27.8,11.5c-7.7,7.7-11.5,17-11.5,27.8s3.8,20.2,11.5,27.8
		c7.7,7.7,17,11.5,27.8,11.5s20.2-3.8,27.8-11.5c7.7-7.7,11.5-17,11.5-27.8S155.3,42.5,147.6,34.9z M119.7,86.1
		c-6.5,0-12-2.3-16.6-6.9c-4.6-4.6-6.8-10.1-6.9-16.5h46.8c0,6.4-2.3,11.9-6.8,16.5C131.7,83.8,126.2,86.1,119.7,86.1z"/>
</g>
</svg>
